<?xml version="1.0" standalone="no"?>
<!DOCTYPE svg PUBLIC "-//W3C//DTD SVG 20010904//EN"
 "http://www.w3.org/TR/2001/REC-SVG-20010904/DTD/svg10.dtd">
<svg version="1.0" xmlns="http://www.w3.org/2000/svg"
 width="972.000000pt" height="972.000000pt" viewBox="0 0 972.000000 972.000000"
 preserveAspectRatio="xMidYMid meet">
<metadata>
Created by potrace 1.11, written by Peter Selinger 2001-2013
</metadata>
<g transform="translate(0.000000,972.000000) scale(0.100000,-0.100000)"
fill="#000000" stroke="none">
<path d="M7080 9447 c-3 -3 -41 -8 -85 -11 -44 -4 -87 -9 -95 -11 -8 -2 -31
-7 -50 -10 -19 -3 -46 -8 -60 -10 -14 -3 -34 -7 -45 -9 -249 -50 -590 -194
-815 -345 -413 -276 -727 -664 -909 -1124 -36 -90 -96 -286 -110 -358 -6 -30
-12 -63 -14 -74 -3 -11 -8 -45 -12 -75 -4 -30 -9 -63 -11 -73 -21 -116 -21
-467 1 -599 45 -273 71 -374 141 -558 119 -308 297 -582 542 -829 72 -74 131
-136 129 -137 -2 -2 -59 -23 -128 -48 -143 -51 -277 -101 -334 -126 -22 -10
-64 -25 -92 -34 -94 -31 -166 -119 -198 -243 -14 -53 -22 -219 -11 -230 2 -3
0 -18 -6 -34 -8 -23 -7 -34 4 -47 8 -9 27 -55 43 -102 15 -47 43 -113 61 -147
l33 -63 -27 -1 c-15 -1 -68 -3 -118 -5 -50 -1 -106 -5 -125 -8 -19 -3 -79 -10
-134 -16 -55 -6 -118 -15 -140 -20 -50 -11 -140 -28 -184 -35 -19 -3 -37 -7
-40 -9 -3 -2 -22 -7 -41 -10 -19 -3 -66 -14 -104 -25 -61 -17 -72 -18 -91 -5
-27 17 -54 9 -65 -20 -5 -15 -23 -27 -52 -35 -57 -17 -235 -79 -273 -96 -51
-22 -79 -29 -115 -30 -26 0 -37 -6 -45 -22 -5 -12 -16 -24 -25 -27 -8 -3 -24
-10 -35 -15 -18 -7 -21 -5 -23 15 -1 13 2 24 6 24 4 0 35 25 67 55 43 40 54
55 40 54 -11 -1 -29 2 -39 6 -13 6 -23 3 -31 -8 -17 -23 -62 -32 -81 -16 -14
11 -19 10 -34 -8 -23 -28 -49 -31 -83 -9 -26 18 -28 18 -47 1 -11 -10 -18 -22
-17 -28 2 -12 -15 -19 -228 -86 -379 -121 -673 -258 -1087 -508 -113 -69 -211
-122 -216 -119 -5 3 -13 22 -16 41 -4 19 -10 34 -14 34 -19 -3 -30 3 -36 19
-3 9 -9 24 -12 32 -5 13 -4 13 5 0 10 -13 12 -13 21 0 9 14 7 29 -8 68 -4 12
-1 12 17 1 19 -12 26 -29 22 -51 0 -5 3 -8 9 -8 5 0 10 8 10 18 0 10 7 27 15
38 8 12 11 24 8 28 -3 3 -2 6 4 6 6 0 13 -7 17 -15 3 -8 10 -15 16 -15 16 0
12 42 -8 63 -16 19 -16 20 6 8 12 -6 22 -9 22 -5 0 12 -48 63 -54 57 -8 -9
-56 37 -66 62 -5 13 -2 24 9 32 12 9 16 30 17 90 1 96 1 100 15 86 9 -9 17 -9
33 0 48 27 38 57 -13 39 l-31 -11 27 47 c23 41 24 45 6 29 -21 -18 -22 -18
-47 0 -14 10 -26 24 -26 31 0 6 -4 12 -9 12 -4 0 -6 -11 -3 -25 2 -14 1 -25
-4 -24 -37 7 -43 -14 -18 -62 11 -23 12 -30 2 -28 -18 3 -48 -11 -48 -23 0 -5
15 -8 32 -6 27 2 33 -1 35 -17 2 -11 0 -15 -3 -8 -4 9 -12 7 -27 -7 -11 -11
-32 -21 -46 -21 -14 -1 -33 -2 -41 -3 -8 -1 -27 7 -42 17 -67 44 -134 61 -246
59 -202 -3 -433 -128 -492 -268 -26 -60 -33 -166 -16 -232 37 -139 140 -268
260 -327 71 -34 90 -40 176 -51 25 -3 54 -7 65 -9 11 -1 19 -9 19 -19 -2 -23
17 -20 23 4 7 28 23 14 23 -21 0 -20 -5 -29 -17 -30 -10 -1 -36 -4 -58 -6 -22
-2 -48 -4 -58 -4 -15 0 -16 -3 -6 -15 6 -8 10 -16 8 -19 -5 -5 -137 59 -152
74 -6 6 -18 11 -26 11 -11 0 -7 -8 13 -26 24 -23 28 -32 23 -66 -3 -22 -7 -42
-10 -44 -2 -3 -44 -11 -93 -20 -49 -8 -100 -17 -114 -20 -39 -6 -258 -34 -325
-40 -33 -3 -96 -8 -139 -12 l-79 -7 99 -49 c138 -68 250 -109 382 -142 72 -18
112 -32 112 -41 0 -17 17 -17 23 0 3 9 7 9 19 0 8 -7 18 -10 21 -6 11 10 76
10 70 0 -3 -5 4 -6 15 -3 17 6 20 3 17 -14 -2 -11 0 -18 6 -15 5 4 9 14 10 23
1 11 4 8 9 -8 l8 -25 1 25 c1 20 3 22 11 10 9 -13 10 -13 10 0 1 9 6 5 16 -10
12 -20 14 -21 9 -4 -3 14 -1 21 9 21 14 0 14 -25 1 -46 -3 -5 -1 -12 3 -15 5
-3 15 12 22 33 10 32 16 37 39 35 37 -3 36 -3 23 -16 -7 -7 -12 -17 -12 -22 0
-6 5 -4 11 4 9 13 10 13 6 0 -2 -8 -8 -15 -13 -15 -5 0 -15 -4 -21 -8 -7 -5
-17 -6 -22 -3 -5 3 -11 0 -14 -8 -3 -7 -18 -17 -34 -21 -15 -3 -31 -12 -35
-18 -8 -14 -222 -17 -332 -4 -127 14 -377 73 -471 112 -43 18 8 -26 104 -90
135 -90 308 -166 454 -201 16 -4 32 -16 37 -28 6 -18 3 -22 -24 -28 -23 -5
-43 -1 -76 15 -50 25 -90 26 -69 1 9 -11 8 -14 -7 -14 -18 -1 -18 -1 -1 -11 9
-5 17 -17 17 -25 0 -8 -8 -18 -17 -21 -25 -10 -41 -33 -36 -54 5 -19 33 -15
33 5 0 16 30 17 31 2 1 -6 2 -20 3 -31 0 -11 8 -20 16 -20 8 0 15 7 14 15 -1
9 8 15 22 15 13 0 23 -4 22 -10 -4 -18 13 -70 25 -77 8 -5 16 4 24 25 11 30
12 31 12 6 1 -16 -9 -34 -25 -48 -21 -18 -24 -25 -13 -32 8 -5 19 -9 24 -9 6
0 3 5 -5 10 -13 8 -12 10 3 10 11 0 17 -5 14 -12 -2 -7 -1 -23 4 -35 8 -22 3
-23 -34 -10 -9 4 -25 10 -35 13 -9 4 -44 9 -78 11 -47 4 -63 1 -73 -11 -10
-12 -10 -16 -2 -16 7 0 9 -6 6 -13 -4 -6 -1 -5 7 3 7 9 23 16 36 17 20 2 22 0
11 -14 -7 -8 -12 -28 -11 -45 1 -16 -1 -27 -6 -24 -5 3 -7 -5 -6 -17 1 -12 3
-29 3 -37 1 -12 3 -13 10 -1 5 7 13 11 19 7 6 -4 8 2 5 14 -6 23 6 26 27 8 12
-11 12 -10 2 3 -13 17 1 39 24 39 6 0 17 7 24 15 7 8 17 15 23 15 6 0 0 -11
-13 -25 -12 -13 -28 -23 -34 -22 -6 1 -9 -5 -7 -13 2 -8 4 -23 5 -32 0 -9 4
-14 9 -11 5 3 6 11 3 19 -5 14 18 44 35 44 5 0 9 -6 9 -12 0 -9 4 -8 10 2 5 8
10 10 10 4 0 -18 -12 -24 -26 -13 -8 7 -14 6 -20 -2 -5 -8 -3 -9 6 -4 9 5 10
2 5 -14 -4 -13 -2 -21 5 -21 6 0 8 5 4 12 -5 8 0 9 14 6 12 -4 20 -2 16 3 -3
5 0 9 6 9 6 0 8 5 4 12 -4 7 -3 8 4 4 6 -4 9 -13 6 -21 -8 -20 -53 -47 -66
-39 -7 4 -8 3 -4 -4 4 -7 2 -12 -4 -12 -6 0 -28 -11 -50 -25 -25 -16 -54 -25
-80 -25 -22 0 -40 -4 -40 -9 0 -5 -10 -12 -23 -15 l-22 -6 25 -15 c24 -14 24
-15 -16 -9 -65 10 -129 -31 -122 -78 l3 -23 20 22 c11 13 28 23 39 23 18 0 17
-3 -7 -28 -15 -15 -27 -31 -27 -34 0 -3 16 -6 35 -6 23 0 35 5 35 14 0 15 1
15 40 19 13 1 26 8 28 14 3 8 9 8 24 0 11 -6 22 -8 26 -5 3 3 -1 6 -8 6 -11 0
-11 3 -3 11 7 7 19 9 29 5 16 -6 15 -8 -4 -22 -12 -8 -22 -22 -22 -30 0 -16
16 -19 25 -4 4 6 10 8 15 5 5 -3 -4 -18 -20 -33 -29 -27 -42 -55 -27 -59 15
-6 37 -3 36 5 -4 21 3 30 25 34 18 4 22 1 19 -13 -7 -25 14 -33 28 -11 14 22
53 18 45 -4 -3 -7 -1 -16 4 -19 5 -3 8 -13 8 -23 0 -9 3 -25 7 -34 5 -13 2
-18 -10 -18 -10 0 -15 5 -12 14 3 7 -3 20 -14 29 -16 14 -19 15 -19 2 0 -18
-14 -19 -43 -3 -19 10 -20 9 -9 -4 11 -14 7 -14 -30 -7 -96 18 -141 6 -117
-32 5 -8 9 -9 9 -3 0 7 12 14 26 17 20 4 24 1 18 -12 -3 -9 -8 -27 -9 -39 -3
-19 0 -23 16 -19 27 7 34 -10 7 -19 -13 -4 -26 -7 -30 -6 -17 4 -103 -65 -106
-85 -4 -28 12 -29 38 -3 26 26 42 18 30 -15 -5 -14 -6 -25 -2 -25 4 0 1 -4 -7
-9 -18 -11 -110 18 -195 61 -23 12 -121 38 -156 42 -41 4 -61 -11 -51 -37 6
-15 4 -29 -5 -42 -8 -10 -14 -24 -14 -29 0 -6 9 3 19 20 11 18 23 34 28 36 4
3 2 3 -6 1 -12 -3 -12 -1 -1 12 12 14 15 14 22 2 5 -9 16 -13 28 -10 21 5 28
-11 10 -22 -6 -4 -8 -10 -5 -15 3 -4 -2 -10 -10 -14 -8 -3 -15 -11 -15 -18 0
-9 3 -8 10 2 8 12 10 10 10 -9 0 -17 4 -22 15 -17 11 4 15 0 13 -12 -4 -24 31
-16 59 14 12 13 29 24 38 24 19 0 -52 -65 -80 -72 -11 -3 -29 -9 -40 -13 -16
-7 -18 -6 -7 6 6 7 12 19 12 26 0 15 -26 18 -35 3 -3 -6 1 -7 9 -4 9 3 16 2
16 -3 0 -11 -47 -53 -53 -47 -2 2 -12 -6 -23 -18 -15 -18 -16 -20 -1 -9 9 7
17 10 17 6 0 -4 6 -2 14 4 8 7 25 14 39 17 22 3 25 1 21 -18 -2 -13 -1 -17 3
-8 3 8 13 21 22 28 9 8 10 11 4 7 -7 -3 -13 -4 -13 -2 0 3 19 15 43 27 l42 22
-20 -23 c-11 -13 -24 -27 -30 -31 -10 -8 8 -12 35 -8 13 2 13 0 0 -17 -8 -10
0 -3 17 16 18 20 33 30 33 23 0 -7 5 -10 12 -6 7 4 8 3 4 -5 -4 -6 -9 -32 -11
-59 -2 -38 -1 -42 6 -21 10 26 32 42 78 55 21 5 23 4 17 -12 -4 -11 -9 -27
-11 -38 -3 -10 -10 -25 -17 -34 -8 -9 -8 -13 -2 -9 7 4 15 0 18 -9 3 -8 2 -13
-3 -10 -5 3 -12 -1 -15 -9 -3 -9 -15 -19 -26 -23 -20 -7 -20 -7 0 -20 17 -10
20 -10 20 2 0 8 10 22 22 31 21 14 23 14 30 -2 5 -15 7 -13 7 7 1 17 4 21 12
13 8 -8 8 -17 -1 -33 -7 -13 -8 -20 -2 -16 6 3 16 22 22 42 11 33 13 34 25 17
7 -10 15 -27 18 -38 3 -13 5 -9 6 13 0 17 6 32 12 32 6 0 8 -9 3 -22 -6 -20
-5 -21 10 -9 20 17 21 3 1 -25 -8 -12 -12 -24 -8 -27 3 -4 -1 -9 -10 -13 -9
-3 -13 -12 -11 -19 3 -7 0 -16 -5 -20 -12 -7 -5 -25 10 -25 5 0 9 10 9 23 1
21 1 22 15 3 16 -21 20 -10 6 14 -6 8 -7 18 -4 23 3 5 9 3 14 -4 13 -21 22 -3
9 20 -8 15 -8 26 0 39 9 14 10 13 4 -8 l-6 -25 21 23 c13 13 27 19 34 15 7 -4
19 -8 27 -8 48 -4 51 -5 48 -27 -2 -13 -7 -28 -11 -35 -5 -8 -1 -11 11 -10 14
1 17 7 14 29 -5 33 15 38 26 8 7 -19 9 -19 37 12 21 23 23 27 6 13 -17 -14
-25 -16 -28 -7 -3 6 -9 10 -13 7 -15 -9 -18 10 -4 23 12 11 14 10 14 -3 0 -19
5 -19 35 1 23 15 24 15 20 -5 -4 -21 -44 -81 -55 -81 -3 0 -15 -7 -26 -15 -17
-14 -16 -14 13 -1 17 9 38 25 45 35 9 13 25 19 46 19 28 -1 30 -3 21 -22 -9
-18 -8 -18 8 2 19 23 20 23 61 7 32 -13 42 -23 42 -40 0 -28 -13 -38 -70 -54
-77 -22 -236 -113 -307 -175 -7 -6 -37 -31 -67 -56 -30 -25 -57 -50 -60 -57
-4 -9 354 -12 1557 -13 859 -1 2563 -3 3786 -5 l2224 -5 -24 27 c-13 15 -45
50 -70 78 -89 95 -102 113 -120 166 -10 29 -18 54 -16 55 1 2 24 -15 50 -37
50 -43 61 -40 25 7 -18 22 -19 27 -6 21 10 -3 20 -2 23 3 4 6 2 10 -2 10 -12
0 -46 60 -39 67 3 3 8 -2 12 -11 6 -16 35 -22 47 -9 4 3 0 17 -8 30 -18 27
-11 29 29 8 22 -12 32 -13 40 -4 8 9 8 10 0 6 -6 -4 -16 5 -23 19 -15 34 -14
37 9 31 11 -3 20 -2 20 2 0 16 -43 45 -68 47 -105 6 -109 8 -93 47 6 17 8 17
34 -3 35 -28 35 -8 0 24 -21 20 -25 28 -16 37 9 9 16 9 28 -1 13 -11 14 -8 8
21 l-6 34 21 -19 c26 -22 27 -17 8 29 -8 18 -12 35 -10 38 8 8 -48 47 -67 47
-11 0 -19 6 -20 13 0 6 -2 20 -4 29 -2 9 4 19 13 23 16 6 32 -10 32 -32 0 -7
9 -13 20 -13 11 0 20 -4 20 -9 0 -5 7 -11 14 -14 25 -10 7 24 -38 73 l-41 44
43 -37 c23 -20 50 -37 60 -36 13 0 14 2 2 6 -8 3 -26 17 -40 30 l-24 24 29
-12 c17 -7 35 -17 42 -22 13 -9 13 10 -1 32 -7 10 -3 12 15 6 l24 -6 -25 21
-25 21 24 -6 c16 -5 21 -4 17 4 -4 6 -2 11 5 11 7 0 4 7 -7 15 -14 11 -50 14
-144 15 -107 0 -130 3 -157 20 -18 11 -33 25 -33 32 0 8 -3 9 -8 3 -9 -13 -72
-16 -72 -4 0 5 4 9 9 9 5 0 13 10 17 22 l6 21 13 -23 c7 -12 15 -18 18 -13 3
5 -13 29 -37 52 l-43 42 2 -59 c2 -62 -7 -71 -46 -47 -18 11 -33 125 -16 125
5 0 4 7 -3 15 -11 13 -10 14 5 8 15 -5 17 -3 12 12 -6 14 -5 16 6 7 8 -7 16
-9 20 -6 3 3 17 -11 30 -33 13 -21 33 -45 43 -53 18 -14 18 -14 1 6 -10 12
-17 25 -15 30 1 5 -3 19 -10 31 -16 30 1 30 22 1 9 -13 14 -16 10 -8 -7 12 -5
13 8 3 8 -7 17 -11 20 -8 3 3 13 -4 23 -15 15 -16 16 -22 5 -35 -15 -18 -15
-17 27 -39 40 -20 47 -20 39 0 -3 8 -2 12 4 9 6 -3 10 0 10 7 1 7 11 1 23 -15
33 -40 42 -21 11 22 l-26 36 31 -33 c41 -41 49 -41 20 0 -23 33 -23 33 -1 14
12 -11 22 -14 22 -8 0 7 7 9 18 5 15 -6 16 -5 2 12 -14 17 -14 18 8 6 22 -12
23 -11 17 8 -5 16 -3 20 9 15 12 -5 15 -2 10 10 -3 9 -10 16 -14 16 -5 0 -15
13 -24 30 -16 33 -11 40 11 13 13 -17 14 -16 8 5 -8 28 8 29 35 2 22 -22 39
-28 22 -7 -14 16 -2 33 22 32 11 0 21 6 24 13 2 6 -1 12 -8 12 -6 0 -8 -5 -4
-12 4 -7 3 -8 -4 -4 -6 4 -9 13 -5 21 3 8 0 15 -7 15 -7 0 -10 7 -6 15 7 18
-53 46 -82 39 -24 -7 -145 24 -154 39 -13 20 -9 30 7 17 9 -7 22 -9 32 -5 10
5 21 7 26 7 4 -1 7 2 7 8 0 5 9 1 21 -11 16 -16 23 -18 35 -8 10 8 12 15 4 23
-14 14 -13 27 3 25 31 -4 38 1 27 20 -11 21 2 37 20 26 5 -3 8 7 5 25 -2 21 2
33 14 40 10 5 21 6 25 3 3 -3 6 -2 6 4 0 18 -29 36 -50 30 -11 -3 -23 -1 -26
4 -3 6 -12 5 -22 -3 -13 -11 -14 -11 -7 2 8 13 7 13 -8 1 -15 -12 -19 -12 -32
5 -19 26 -19 44 2 44 9 0 13 3 10 7 -4 3 -2 12 5 20 8 11 8 17 -2 26 -10 10
-12 8 -6 -7 5 -16 4 -17 -8 -7 -22 18 1 39 38 34 24 -2 27 0 18 9 -7 7 -12 20
-12 29 0 13 6 16 22 11 21 -5 21 -4 -4 23 -17 17 -32 26 -42 22 -17 -7 -22 8
-6 18 6 3 10 13 10 21 0 11 -4 12 -19 4 -11 -5 -30 -10 -43 -10 -21 1 -21 2
-6 13 11 9 14 18 7 28 -13 20 -11 29 6 29 8 0 15 9 15 19 0 10 7 21 15 25 27
10 17 29 -11 22 -15 -4 -32 -2 -40 5 -12 10 -16 8 -21 -10 -4 -17 -8 -19 -17
-9 -6 7 -10 11 -9 9 2 -2 -7 -9 -20 -16 -12 -6 -21 -18 -19 -25 3 -11 0 -11
-12 -1 -10 8 -16 9 -21 1 -4 -6 -20 -9 -35 -6 -17 2 -31 -1 -34 -7 -3 -8 -8
-7 -15 3 -5 8 -13 11 -17 8 -7 -8 -46 36 -63 72 -9 18 -2 14 25 -15 36 -39 40
-34 18 20 -7 17 -6 18 8 7 8 -7 22 -10 30 -7 8 3 18 -2 24 -13 8 -18 10 -18
26 -3 16 16 16 19 -3 61 l-20 44 27 -24 c26 -24 26 -24 15 -3 -11 21 -9 23 15
23 l26 0 -23 21 c-17 14 -19 19 -7 15 10 -3 20 0 24 6 4 7 9 6 15 -3 7 -11 9
-10 9 4 0 15 3 16 23 6 19 -11 20 -10 10 3 -7 8 -10 18 -6 21 3 4 -3 7 -15 7
-12 0 -22 4 -22 9 0 4 -12 7 -27 5 -16 -2 -22 -1 -15 2 18 9 14 24 -7 24 -10
0 -24 7 -32 16 -11 13 -9 14 17 8 28 -6 28 -6 9 11 -11 9 -15 14 -9 11 13 -6
64 15 64 27 0 5 -4 6 -9 2 -5 -3 -12 -1 -16 5 -3 5 0 10 7 10 7 0 2 6 -12 13
-21 11 -27 11 -37 -2 -6 -9 -15 -13 -18 -9 -4 4 -17 2 -28 -3 -15 -8 -22 -8
-28 2 -7 11 -9 11 -9 1 0 -15 -31 -12 -42 3 -14 19 -8 26 12 15 15 -8 20 -8
20 1 0 6 7 9 15 5 8 -3 22 2 30 11 9 8 27 15 41 15 13 0 24 4 24 8 0 4 24 10
53 14 108 13 268 39 264 42 -2 2 -68 20 -147 40 -148 37 -180 50 -180 72 0 7
-5 10 -10 7 -6 -4 -7 -11 -4 -17 10 -16 -38 1 -59 21 -17 16 -16 17 12 15 29
-2 48 17 35 37 -3 5 2 9 11 9 9 0 23 7 31 15 14 13 14 15 0 15 -8 0 -20 8 -25
18 -9 14 -10 15 -11 1 0 -18 -31 -22 -42 -5 -5 7 -8 4 -8 -7 0 -10 -4 -16 -9
-12 -5 3 -13 -4 -16 -16 -6 -19 -8 -20 -26 -3 -14 13 -16 20 -8 30 6 8 15 11
20 8 5 -3 20 5 34 18 l24 23 -27 12 c-15 8 -19 11 -9 8 10 -3 16 -1 12 4 -3 5
1 12 7 14 9 4 8 6 -2 6 -8 0 -22 -3 -30 -9 -9 -5 -19 -5 -27 1 -7 6 -18 8 -25
4 -7 -4 -4 1 6 9 11 9 29 17 40 17 17 1 18 2 3 6 -9 2 -15 8 -12 13 3 5 13 6
22 3 11 -4 14 -3 9 5 -4 7 -3 12 1 12 5 0 18 7 29 15 18 14 17 14 -9 5 -34
-12 -40 -12 -33 -2 3 5 -1 9 -9 9 -8 0 -15 -5 -15 -11 0 -6 -5 -4 -10 4 -8 13
-10 13 -10 -2 0 -11 -5 -15 -15 -12 -8 4 -15 1 -15 -5 0 -8 -5 -9 -19 -2 -23
13 -37 43 -15 34 17 -6 19 8 3 24 -9 9 -6 10 11 6 16 -4 21 -3 16 5 -9 16 7
15 22 0 6 -6 15 -8 19 -3 5 4 2 10 -5 12 -6 3 -10 9 -7 14 4 5 -1 6 -9 3 -11
-4 -16 0 -16 14 0 22 -21 34 -47 26 -17 -5 -17 -5 0 6 9 6 17 18 17 25 0 8 5
15 11 15 5 0 8 4 4 9 -3 5 -1 12 5 16 13 8 -10 45 -28 45 -7 0 -10 5 -6 11 5
9 -1 10 -20 5 -18 -4 -26 -2 -26 6 0 10 -2 10 -9 -1 -6 -9 -11 -10 -15 -2 -4
6 7 20 27 31 32 19 34 23 23 45 -14 30 -22 31 -29 4 -3 -12 -10 -18 -17 -14
-6 3 -10 3 -9 -2 3 -19 -2 -33 -12 -33 -5 0 -7 5 -4 10 3 6 1 10 -6 10 -8 0
-9 3 0 13 6 8 8 17 4 20 -3 4 0 7 8 7 12 0 12 2 -1 10 -12 8 -12 10 3 16 25 9
21 26 -5 18 -23 -7 -23 -6 -4 15 11 12 14 21 7 21 -8 0 -7 10 4 33 l16 32 -20
-25 c-11 -14 -21 -28 -21 -32 0 -5 -4 -8 -10 -8 -5 0 -8 27 -7 60 2 33 -1 60
-5 60 -4 0 -8 6 -8 14 0 8 -3 17 -7 19 -5 3 -8 -17 -8 -43 -1 -27 2 -47 5 -45
3 2 6 -8 7 -22 l1 -26 -25 29 c-21 26 -22 26 -9 3 19 -31 12 -41 -23 -33 -23
5 -24 4 -8 -6 10 -7 25 -9 33 -6 9 3 12 1 9 -4 -3 -6 -14 -10 -23 -11 -10 -1
-7 -4 8 -8 14 -4 27 -16 29 -26 3 -17 1 -18 -13 -6 -10 8 -16 9 -16 3 0 -6 5
-14 10 -17 6 -4 8 -15 5 -25 -3 -10 -1 -21 4 -25 7 -4 8 1 4 11 -4 12 -3 15 5
10 15 -9 16 -36 2 -36 -6 0 -19 15 -31 33 l-20 32 7 -29 c6 -24 4 -28 -9 -23
-9 3 -19 2 -22 -3 -4 -6 1 -10 9 -10 10 0 13 -6 9 -17 -4 -11 -3 -14 5 -9 14
9 15 -3 2 -24 -5 -9 -5 -17 1 -21 5 -3 7 -13 3 -22 -5 -13 -9 -12 -29 11 -13
15 -26 24 -29 21 -3 -3 3 -15 13 -26 15 -16 17 -23 8 -32 -12 -13 -13 -12 42
-51 21 -14 31 -37 11 -25 -5 3 -10 0 -10 -7 -1 -7 -8 -2 -16 12 -8 14 -13 17
-10 7 4 -14 1 -16 -18 -11 -13 3 -27 1 -30 -5 -4 -6 4 -13 19 -17 27 -7 33
-22 11 -30 -7 -3 -13 -16 -13 -29 0 -14 4 -22 9 -19 5 3 7 11 5 18 -3 7 3 13
13 13 12 1 16 -5 14 -23 -2 -21 6 -29 29 -25 13 2 7 -17 -8 -23 -8 -3 -15 -11
-15 -17 0 -8 4 -8 13 -1 8 7 16 6 26 -5 12 -13 11 -14 -8 -8 -13 4 -21 2 -21
-5 0 -6 -10 -15 -22 -20 -13 -5 -17 -9 -10 -9 6 -1 12 -8 12 -17 0 -25 -212
92 -219 121 -1 6 -8 9 -15 8 -6 -2 -27 10 -46 26 -34 28 -34 30 -16 44 12 9
17 21 14 35 -4 13 0 23 9 26 17 7 14 58 -4 64 -7 2 -21 -11 -30 -28 -10 -18
-26 -43 -37 -57 -17 -23 -19 -23 -37 -7 -11 10 -17 26 -15 40 5 28 -3 37 -21
22 -25 -21 -39 6 -24 47 7 19 9 39 6 45 -3 5 -2 10 2 10 5 0 18 6 28 14 16 11
17 17 7 29 -11 13 -10 19 6 34 28 27 33 50 16 68 -11 11 -20 12 -34 5 -20 -11
-60 -62 -60 -77 0 -5 -11 -20 -24 -32 l-25 -23 -3 53 c-3 46 0 56 25 80 15 15
27 34 27 42 0 7 11 19 25 25 19 9 25 19 25 42 0 39 -33 55 -67 34 -33 -21 -46
-17 -41 10 8 40 -6 53 -42 39 -17 -6 -32 -7 -36 -2 -3 5 0 10 5 10 6 1 16 2
22 3 16 2 37 35 34 54 -2 9 -4 21 -4 25 -1 4 -15 13 -31 19 -24 8 -31 17 -36
48 -13 77 -36 81 -38 5 -1 -36 -4 -45 -16 -42 -21 5 -50 -27 -39 -44 11 -18
12 -76 0 -83 -4 -3 -19 6 -31 19 -39 42 -60 28 -60 -39 0 -18 -3 -35 -6 -39
-3 -3 -42 23 -87 57 -139 107 -290 195 -461 270 l-79 34 69 44 c293 189 810
521 954 615 l175 113 105 -7 c251 -17 463 -5 685 38 830 164 1519 766 1796
1569 60 173 107 396 124 585 7 71 7 335 1 390 -6 47 -16 137 -20 165 -2 14 -6
39 -9 55 -4 17 -9 44 -12 61 -2 17 -16 75 -30 130 -77 296 -225 602 -412 849
-95 125 -270 304 -398 408 -304 245 -706 434 -1050 492 -16 3 -52 10 -80 15
-27 5 -70 12 -95 15 -59 7 -454 17 -460 12z m-1928 -5417 c131 -163 328 -232
492 -175 l66 23 48 -41 c96 -83 279 -276 352 -372 95 -125 151 -211 143 -219
-12 -11 -46 -6 -77 12 -41 24 -59 22 -67 -8 -6 -23 -7 -23 -8 -3 -1 12 -9 26
-18 32 -13 7 -17 20 -14 50 3 46 -10 53 -33 19 -15 -21 -16 -21 -17 -3 -1 31
-7 56 -14 63 -4 4 -6 0 -5 -8 4 -29 0 -39 -14 -34 -8 3 -17 0 -21 -6 -5 -8
-11 -8 -21 1 -27 22 -27 0 1 -36 l27 -36 -28 3 c-16 2 -39 9 -51 16 -27 15
-30 6 -6 -20 14 -16 15 -21 4 -28 -11 -6 -9 -11 9 -20 12 -6 19 -14 16 -17 -3
-3 -23 6 -45 20 l-40 26 2 -27 c1 -15 8 -33 15 -40 16 -18 15 -29 -3 -36 -8
-3 -15 -1 -15 4 0 13 -27 13 -35 0 -11 -17 18 -47 43 -44 12 2 22 0 22 -5 0
-5 9 -11 20 -14 11 -3 20 -10 20 -15 0 -13 -35 -7 -84 13 -32 14 -36 14 -36 0
0 -8 6 -15 13 -15 7 -1 5 -6 -6 -14 -17 -13 -16 -15 17 -31 20 -10 36 -21 36
-26 0 -14 -15 -11 -41 9 -13 9 -39 25 -56 35 -29 16 -33 16 -33 3 0 -9 -4 -16
-10 -16 -18 0 -10 -19 11 -25 17 -6 18 -9 8 -16 -11 -6 -11 -9 1 -13 40 -12
42 -16 6 -10 -32 4 -38 3 -33 -10 7 -19 -2 -20 -39 -5 -24 9 -30 7 -45 -12
l-16 -22 -22 22 c-25 25 -28 46 -5 37 9 -4 23 -1 32 6 8 7 18 12 21 10 3 -1 8
7 9 19 3 17 6 19 13 8 7 -11 11 -10 23 6 20 26 16 38 -15 45 -23 6 -23 6 -4
17 11 6 17 15 13 19 -5 4 -3 13 4 21 18 22 -1 28 -32 9 -17 -9 -30 -14 -30
-10 0 3 -7 1 -15 -6 -12 -10 -18 -10 -30 0 -12 10 -19 10 -27 2 -19 -19 -28
-14 -28 17 0 28 2 29 30 21 19 -5 32 -5 36 2 4 5 18 8 33 5 18 -4 35 1 51 15
l25 20 -28 -7 c-25 -5 -27 -4 -18 14 10 17 7 18 -27 15 -34 -3 -32 -1 8 12 12
4 13 6 0 14 -11 7 -8 11 15 20 27 10 28 12 12 22 -14 7 -16 13 -6 24 17 20 -1
17 -36 -7 -50 -34 -105 -60 -105 -50 0 5 18 17 40 27 43 19 49 28 24 38 -14 5
-12 9 7 26 30 25 17 25 -51 1 -59 -21 -95 -16 -42 6 18 7 32 17 32 22 0 4 10
6 23 4 17 -3 26 2 37 21 16 31 6 45 -21 28 -16 -10 -20 -10 -25 3 -4 9 0 23 8
33 9 9 18 30 22 46 7 27 6 28 -11 15 -10 -8 -20 -16 -23 -19 -3 -3 -18 -11
-35 -18 l-30 -13 29 24 c20 16 25 26 18 31 -8 5 -3 15 16 31 28 25 16 33 -19
14 -11 -5 -29 -9 -40 -7 -18 3 -17 6 11 36 31 34 43 65 16 43 -8 -7 -25 -9
-41 -5 -22 6 -26 11 -21 33 l6 26 -15 -25 c-8 -14 -14 -36 -15 -50 l0 -25 -24
30 -24 29 -7 -53 c-5 -40 -12 -55 -26 -58 -10 -3 -19 -14 -19 -24 0 -10 -4
-21 -10 -24 -6 -3 -10 5 -10 19 0 19 -5 24 -20 23 -17 -1 -20 -6 -15 -27 5
-23 3 -26 -21 -25 -15 0 -34 10 -46 25 -11 14 -45 54 -76 89 -57 65 -60 72
-47 103 10 26 -29 60 -57 49 -20 -8 -31 -1 -75 42 -46 44 -53 48 -53 29 0 -30
-20 -24 -48 16 -22 31 -23 35 -8 51 17 18 13 49 -8 63 -6 4 -2 10 9 13 11 4
33 12 48 17 15 6 29 9 30 7 1 -2 9 -17 17 -34 19 -37 71 -57 111 -43 43 15 63
44 63 91 -1 37 9 58 26 56 3 0 26 -27 52 -59z m-452 -122 c6 -24 18 -66 26
-94 8 -28 17 -62 19 -75 18 -91 18 -88 -3 -83 -25 7 -38 -24 -18 -44 12 -13
18 -13 30 -2 13 10 16 10 17 -1 0 -8 2 -21 3 -29 5 -23 18 -130 22 -180 2 -25
6 -121 8 -213 4 -154 13 -232 36 -312 17 -61 20 -85 11 -85 -5 0 -12 13 -16
30 -6 25 -9 28 -25 20 -13 -7 -21 -5 -30 5 -7 8 -21 15 -31 15 -18 0 -19 -1
-3 -25 10 -15 12 -25 5 -25 -19 0 -12 -16 14 -30 22 -12 23 -15 10 -23 -24
-13 -9 -25 27 -22 18 1 39 -2 46 -8 7 -5 15 -7 19 -4 7 8 33 -11 33 -24 0 -5
-10 -9 -22 -9 -13 0 -30 -4 -38 -10 -11 -7 -9 -11 13 -19 16 -6 37 -11 47 -11
20 0 40 -27 40 -56 0 -12 -5 -15 -20 -10 -65 20 -64 20 -57 3 4 -10 3 -17 -1
-18 -4 0 -17 -2 -30 -3 -12 -2 -33 3 -46 9 -12 7 -37 10 -54 7 -28 -4 -30 -6
-20 -28 6 -13 26 -28 46 -35 l35 -12 -27 -16 c-26 -16 -34 -31 -16 -31 5 0 7
-7 3 -17 -5 -14 -1 -15 30 -10 23 3 37 1 40 -6 3 -9 10 -9 26 1 35 20 54 16
49 -13 -6 -30 5 -32 33 -4 16 16 28 20 55 14 19 -3 34 -8 34 -11 0 -9 -24 -29
-57 -49 -27 -16 -39 -17 -77 -8 -25 5 -50 7 -57 2 -7 -4 -22 -3 -35 1 -12 5
-31 6 -41 4 -11 -3 -25 2 -32 10 -15 18 -41 21 -41 6 0 -6 -10 -15 -22 -19
-19 -7 -27 -4 -45 18 -26 30 -29 51 -8 51 8 0 15 -8 15 -17 0 -10 5 -25 11
-33 8 -12 10 -9 6 13 -5 33 0 35 13 5 9 -23 9 -23 9 -2 1 13 9 24 22 27 18 5
19 8 8 20 -8 8 -17 13 -21 11 -4 -3 -11 3 -16 12 -8 14 -10 14 -25 0 -20 -21
-28 -20 -21 1 5 17 5 17 -9 1 -8 -10 -17 -15 -21 -11 -11 11 -37 12 -30 2 3
-6 -11 -9 -35 -8 -23 2 -41 7 -41 11 0 4 -7 8 -16 8 -8 0 -12 5 -9 10 3 6 -1
10 -9 10 -9 0 -16 -6 -16 -13 0 -7 -9 -13 -20 -14 -28 -2 -24 18 10 45 l29 23
11 -21 c6 -11 15 -18 20 -15 6 4 3 19 -6 36 -18 35 -12 49 10 26 9 -9 25 -13
37 -10 16 4 17 8 7 14 -9 6 -9 9 -1 9 6 0 23 4 38 10 21 8 24 12 13 23 -6 8
-26 13 -42 12 -41 -3 -68 5 -63 19 2 6 9 12 15 12 7 1 17 2 23 3 5 0 7 6 3 13
-4 7 -3 8 5 4 7 -5 25 7 45 28 18 20 40 36 48 36 11 0 15 6 11 20 -3 12 -2 20
3 19 22 -4 44 2 44 11 0 5 -5 9 -11 7 -6 -1 -13 6 -14 16 -5 28 -15 34 -26 15
-8 -14 -15 -15 -34 -8 -19 7 -27 6 -34 -8 -7 -11 -11 -12 -11 -4 0 7 -4 10
-10 7 -5 -3 -10 -4 -10 -1 0 2 -2 11 -5 18 -4 10 3 13 22 12 16 0 31 4 35 10
7 11 12 12 48 15 11 0 20 7 20 15 0 8 7 17 16 20 8 3 12 2 9 -4 -3 -6 1 -7 10
-4 12 5 13 10 5 20 -9 10 -4 14 24 20 20 3 36 11 36 16 0 6 -9 8 -21 5 -15 -4
-18 -2 -10 7 7 8 3 11 -15 11 -14 -1 -29 -6 -32 -11 -13 -18 -31 -13 -55 16
-14 16 -27 26 -30 23 -3 -3 -3 5 0 17 4 14 9 18 16 11 5 -5 16 -7 25 -4 11 5
13 3 7 -7 -5 -9 -4 -11 4 -6 6 4 9 11 6 16 -3 5 2 13 11 18 15 8 14 12 -9 27
-14 9 -31 14 -36 10 -7 -3 -8 0 -5 9 7 19 20 21 27 4 3 -8 6 -6 6 5 1 10 -6
20 -14 23 -8 4 -15 11 -15 16 0 6 7 8 15 4 16 -6 40 28 30 44 -3 6 -2 10 4 10
6 0 15 -9 21 -21 7 -11 14 -18 17 -15 3 3 0 12 -7 21 -10 12 -10 15 0 15 9 0
8 6 -4 19 -17 18 -17 20 2 30 11 6 22 7 26 4 3 -3 6 2 6 11 0 15 -5 17 -26 12
-23 -6 -26 -4 -20 11 5 16 4 16 -6 3 -17 -20 -52 -26 -45 -8 2 7 10 12 16 10
6 -1 11 5 11 13 0 8 6 15 13 15 8 0 22 9 31 19 13 15 14 20 4 24 -9 4 -10 8
-2 14 38 29 36 79 -5 95 -24 9 -24 11 -7 17 14 5 16 10 8 15 -7 4 -16 4 -22 1
-13 -8 -13 1 1 28 8 16 4 14 -13 -6 l-23 -28 0 30 c-1 17 4 31 10 31 7 0 12 7
12 14 0 11 -5 13 -19 5 -19 -10 -23 -2 -9 20 5 7 13 11 18 8 5 -3 15 -2 23 4
13 7 13 9 0 10 -8 0 -1 7 15 14 20 10 24 14 12 15 -10 0 -27 -5 -37 -10 -16
-8 -19 -7 -17 11 1 12 9 26 18 32 18 11 14 50 -7 68 -8 6 -14 17 -14 25 0 7
-5 16 -12 20 -8 5 -9 2 -5 -10 4 -10 -1 -24 -13 -36 -16 -16 -18 -25 -10 -40
6 -11 7 -34 2 -56 l-8 -38 -18 38 c-10 21 -20 35 -23 33 -2 -3 3 -19 11 -36
15 -29 15 -30 -1 -24 -16 6 -16 5 -4 -10 12 -15 11 -16 -17 -11 -24 5 -32 2
-42 -16 -6 -12 -10 -31 -7 -41 5 -20 -7 -26 -18 -9 -3 6 -11 10 -16 10 -6 0
-3 -7 6 -16 12 -13 13 -19 4 -31 -7 -8 -8 -13 -3 -12 22 4 35 -2 28 -13 -5 -7
-2 -9 7 -6 20 8 39 -15 28 -33 -5 -8 -9 -9 -9 -4 0 6 -17 9 -40 7 -61 -6 -81
-45 -55 -106 6 -14 2 -24 -14 -38 -19 -14 -20 -18 -7 -18 10 0 14 -5 11 -10
-4 -6 -11 -8 -16 -5 -5 4 -9 1 -9 -5 0 -7 -6 -10 -13 -7 -7 3 -18 -3 -25 -13
-14 -23 -4 -33 15 -15 18 18 35 19 32 3 -5 -28 13 -49 35 -42 17 5 16 2 -9
-19 -16 -15 -32 -23 -35 -18 -3 4 -13 7 -23 5 -13 -2 -17 2 -13 13 5 13 4 14
-9 3 -10 -8 -15 -9 -15 -1 0 6 -7 11 -15 11 -8 0 -15 -5 -15 -10 0 -7 -7 -7
-21 0 -11 6 -25 9 -32 7 -7 -3 1 -8 16 -12 19 -5 26 -12 23 -22 -4 -11 -1 -13
14 -8 11 4 20 2 20 -4 0 -6 -6 -11 -12 -11 -7 0 5 -9 27 -20 22 -11 30 -17 18
-14 -15 3 -23 1 -23 -8 0 -10 -3 -9 -10 2 -7 11 -10 11 -10 2 0 -9 -5 -10 -19
-2 -31 16 -35 12 -10 -11 l24 -20 -25 12 c-23 11 -24 11 -11 -4 12 -15 11 -17
-3 -17 -9 0 -16 -4 -16 -10 0 -5 7 -10 17 -10 9 0 14 -3 10 -6 -10 -10 16 -31
34 -27 9 3 20 -1 24 -8 5 -8 4 -10 -3 -5 -7 4 -12 1 -12 -7 0 -24 -31 -30 -37
-7 -3 11 -9 17 -14 14 -5 -3 -9 3 -9 13 0 13 -2 15 -9 5 -10 -16 -34 -12 -43
8 -5 12 -7 12 -7 -2 -1 -13 -9 -18 -28 -18 l-27 0 22 -20 c12 -11 28 -20 37
-20 13 0 14 -4 4 -21 -8 -15 -8 -19 0 -15 6 4 14 0 17 -8 5 -12 10 -13 25 -5
23 12 25 2 3 -22 -14 -16 -13 -18 15 -24 16 -3 34 -12 40 -19 9 -10 5 -13 -18
-12 -21 1 -27 5 -23 16 4 12 2 12 -8 3 -16 -15 -40 -6 -40 15 0 13 -3 12 -16
-4 -15 -18 -15 -18 -11 4 4 15 1 22 -6 19 -7 -3 -11 -10 -10 -16 2 -6 -7 -12
-20 -12 -17 -1 -18 -2 -4 -6 9 -2 15 -9 11 -14 -3 -5 2 -12 11 -15 11 -4 12
-10 6 -18 -7 -9 -1 -17 20 -30 24 -14 28 -20 18 -27 -8 -5 -22 -6 -31 -3 -10
3 -18 1 -18 -5 0 -6 6 -11 13 -12 6 0 -1 -6 -17 -13 l-29 -13 41 -6 c22 -4 42
-14 46 -23 4 -11 13 -13 28 -9 l23 7 -21 -22 c-18 -18 -25 -20 -43 -11 -14 8
-21 8 -21 1 0 -21 -20 -9 -26 16 -6 22 -8 24 -16 10 -5 -9 -16 -16 -25 -16
-13 0 -13 -3 -3 -15 11 -13 8 -15 -16 -16 l-29 -1 25 -8 c14 -4 22 -8 18 -9
-5 -1 0 -9 10 -19 13 -14 23 -17 42 -10 24 9 24 9 5 -11 -10 -12 -26 -21 -37
-21 -21 0 -23 -10 -5 -29 10 -11 9 -12 -1 -7 -14 8 -97 -3 -88 -12 3 -3 0 -12
-7 -20 -10 -13 -8 -14 12 -7 20 6 23 5 17 -10 -6 -16 -4 -16 10 -4 12 10 18
11 21 3 2 -7 14 -10 26 -7 18 4 17 1 -8 -16 l-30 -21 28 0 c26 0 27 -2 16 -22
-11 -22 -11 -22 16 2 l27 25 -26 -54 c-15 -29 -23 -50 -17 -47 5 4 13 -4 16
-16 l7 -21 18 23 c9 12 23 20 31 18 8 -3 22 2 32 10 17 15 17 14 2 -22 -21
-51 -14 -55 20 -11 29 39 45 41 23 4 -14 -24 -57 -64 -70 -64 -4 0 -13 -6 -19
-12 -17 -17 -30 -16 -23 2 5 11 0 13 -23 6 -21 -6 -32 -4 -43 7 -9 10 -15 12
-18 4 -2 -8 -7 -8 -17 1 -7 7 -10 16 -7 21 3 5 -4 7 -16 4 -15 -4 -19 -2 -15
8 3 8 0 14 -6 14 -6 0 -11 -6 -11 -12 0 -10 -2 -10 -8 0 -5 7 -24 21 -42 31
-40 21 -50 41 -22 41 12 0 29 -11 40 -25 23 -29 37 -33 27 -7 -5 14 -4 15 6 5
7 -7 19 -13 27 -13 12 0 12 3 2 15 -11 13 -7 15 24 15 23 0 35 4 31 10 -4 6
-11 8 -16 5 -5 -4 -9 -1 -9 4 0 6 -13 11 -30 11 -20 0 -30 5 -30 15 0 11 -7
10 -35 -7 -20 -11 -35 -17 -34 -12 4 21 -2 26 -16 14 -8 -7 -22 -10 -31 -6 -8
3 -25 1 -36 -5 -16 -9 -19 -8 -13 3 6 10 5 11 -6 1 -7 -7 -25 -13 -40 -13 -15
0 -29 6 -32 13 -4 10 -7 10 -18 0 -16 -15 -33 -17 -24 -3 6 10 -7 14 -32 11
-8 -1 -10 5 -7 14 8 20 -10 20 -26 0 -7 -9 -19 -14 -26 -11 -7 3 -16 1 -19 -4
-9 -14 -25 -12 -25 3 0 11 65 47 85 47 5 0 17 -8 27 -17 14 -13 21 -14 30 -5
8 8 8 12 1 12 -6 0 -19 12 -28 27 -17 25 -17 26 1 19 11 -5 24 -9 31 -10 7 -1
15 -5 19 -8 10 -11 34 3 27 16 -4 6 -1 6 9 -2 13 -10 17 -10 22 3 3 9 10 14
15 11 5 -3 20 -2 33 3 17 7 18 10 6 10 -10 1 -18 4 -18 9 0 4 -30 8 -67 9 -42
1 -71 7 -80 16 -13 13 -11 14 11 12 14 -2 28 1 32 6 3 5 17 6 31 3 18 -5 24
-3 19 5 -5 7 0 11 13 11 12 0 21 5 21 10 0 6 9 10 21 10 11 0 17 5 14 10 -6
10 -3 11 36 14 12 0 25 9 28 19 4 10 10 18 14 18 4 -1 17 -1 30 0 l22 0 -22
11 c-13 6 -23 17 -23 25 0 7 -9 13 -20 13 -11 0 -20 -5 -20 -10 0 -6 -19 -9
-47 -6 -26 2 -53 0 -59 -5 -7 -5 -18 -8 -25 -7 -13 3 -39 23 -39 30 0 2 26 3
59 3 44 0 57 3 54 12 -3 7 0 13 6 13 6 0 11 -4 11 -10 0 -5 5 -10 11 -10 5 0
7 5 3 12 -5 8 -2 9 9 5 9 -3 19 -2 22 4 4 5 11 6 17 3 7 -5 9 -1 5 9 -5 13 -2
15 16 8 12 -5 31 -5 42 -1 17 6 18 8 2 16 -13 8 -8 12 28 20 24 5 42 6 39 2
-3 -4 -12 -8 -20 -8 -8 0 -14 -5 -14 -11 0 -5 13 -2 29 7 29 17 33 41 6 30 -7
-2 -16 -2 -19 1 -11 11 -56 9 -56 -2 0 -5 -5 -3 -10 5 -7 11 -10 11 -10 2 0
-7 -4 -10 -10 -7 -5 3 -10 3 -10 -2 0 -4 -25 -8 -55 -9 -30 -1 -52 3 -49 8 3
5 14 6 25 3 10 -4 19 -2 19 3 0 6 -11 13 -25 16 -15 4 -23 11 -19 17 4 7 -1 9
-15 4 -16 -5 -20 -3 -15 9 6 15 74 18 74 4 0 -5 5 -8 10 -8 6 0 10 7 10 15 0
8 7 15 16 15 8 0 13 4 9 10 -3 5 -13 6 -22 3 -10 -4 -14 -2 -10 4 4 6 -6 13
-23 17 -17 3 -30 10 -30 16 0 7 6 8 19 0 28 -14 36 -12 21 5 -7 8 -19 15 -26
15 -8 0 -14 5 -14 10 0 6 6 10 13 9 31 -4 45 2 42 19 -5 30 6 34 31 11 26 -24
45 -19 24 6 -11 13 -10 15 6 10 10 -4 6 1 -10 10 -22 13 -26 19 -15 26 8 5 28
9 44 9 28 1 29 2 11 15 -13 10 -24 11 -37 5 -27 -15 -42 -12 -35 8 4 12 0 10
-14 -7 -11 -13 -20 -18 -20 -11 0 8 -9 10 -25 6 -14 -4 -25 -2 -25 4 0 10 14
14 39 11 7 -2 11 2 8 6 -3 5 14 15 39 22 49 15 55 25 22 35 -23 7 -23 7 -3 15
12 5 27 16 34 25 13 15 11 16 -15 6 -16 -6 -37 -19 -47 -28 -16 -14 -19 -14
-27 -2 -7 11 -4 17 8 21 16 6 16 7 0 14 -22 9 -24 37 -3 29 8 -4 15 -2 15 4 0
6 -6 13 -12 15 -7 3 0 6 16 6 16 1 26 4 23 8 -4 3 -21 6 -38 5 -30 -1 -30 0
-13 19 25 27 4 24 -27 -5 l-26 -24 0 29 c0 22 5 29 19 29 16 0 17 2 6 14 -11
12 -16 12 -34 1 -20 -13 -21 -12 -17 5 6 21 11 23 56 20 18 -1 27 3 25 11 -2
7 6 15 17 17 16 3 17 1 8 -9 -18 -18 1 -49 27 -42 26 7 26 39 0 53 -19 10 -81
7 -100 -5 -21 -13 -2 32 20 47 14 10 21 18 15 18 -12 -1 -50 -28 -51 -38 -2
-18 -17 -42 -26 -42 -7 0 -6 5 1 13 6 8 8 17 4 20 -3 4 1 15 10 25 14 16 15
24 6 50 -6 18 -8 40 -5 49 5 13 4 14 -9 3 -8 -7 -15 -19 -15 -27 0 -8 -4 -12
-9 -8 -15 9 -33 -33 -24 -58 4 -12 8 -32 8 -44 1 -18 -2 -20 -17 -12 -10 5
-18 13 -18 17 0 4 -12 16 -27 26 -29 21 -24 6 11 -32 20 -22 20 -23 1 -17 -19
6 -19 6 -2 -8 24 -20 22 -24 -15 -20 l-33 3 30 -12 c27 -10 28 -12 10 -19 -17
-6 -17 -8 -3 -8 12 -1 15 -6 11 -18 -6 -15 -4 -16 8 -6 13 10 16 10 16 -2 0
-8 -7 -15 -14 -15 -8 0 -11 -4 -8 -10 3 -5 -1 -10 -10 -10 -8 0 -20 10 -25 23
-5 13 -9 16 -10 7 0 -12 -3 -11 -11 3 -6 9 -14 15 -19 12 -4 -3 -6 5 -3 17 3
17 2 19 -5 9 -5 -7 -15 -10 -21 -7 -6 4 -11 0 -11 -8 0 -14 -3 -14 -20 -4
l-20 13 20 9 c11 5 20 12 20 17 0 4 -19 -2 -41 -13 -29 -13 -49 -17 -68 -12
-14 4 -30 6 -36 5 -14 -3 -2 7 75 66 135 103 373 250 515 318 33 15 67 32 75
36 131 71 160 81 160 59 0 -23 50 -60 79 -60 77 0 123 63 98 135 -6 18 0 23
40 38 26 10 44 15 41 11 -12 -12 14 -61 37 -72 61 -28 129 57 79 99 -15 12
-14 15 12 26 42 17 42 17 54 -29z m-3071 -112 c7 -8 8 -22 3 -37 -9 -22 -9
-22 -20 11 -7 18 -12 35 -12 36 0 9 19 3 29 -10z m3261 -46 c6 -11 8 -20 6
-20 -3 0 -10 9 -16 20 -6 11 -8 20 -6 20 3 0 10 -9 16 -20z m-1520 -11 c0 -5
-10 -9 -21 -9 -18 0 -19 2 -9 15 12 15 30 12 30 -6z m-120 -58 c0 -4 -17 -16
-37 -27 -42 -20 -91 -51 -323 -201 -190 -123 -359 -220 -385 -223 -35 -4 -38
0 -14 19 l23 19 -28 0 c-19 0 -30 -6 -33 -19 -3 -11 -10 -19 -15 -19 -5 0 -6
5 -3 11 4 5 0 18 -9 28 -13 14 -15 27 -8 57 7 38 10 40 142 106 257 130 473
210 539 201 37 -5 46 -2 74 24 42 40 77 51 77 24z m1372 -13 c-5 -7 -12 -24
-15 -38 -4 -22 -4 -21 -6 6 -1 31 5 44 22 44 6 0 5 -5 -1 -12z m-3201 -106
c58 -25 95 -73 80 -101 -6 -11 -20 -22 -31 -26 -10 -3 -30 -19 -43 -34 -12
-15 -53 -45 -90 -65 -67 -38 -77 -56 -32 -56 13 0 26 -6 29 -12 3 -9 8 -8 16
5 6 9 15 17 20 17 6 0 10 -8 10 -17 0 -14 6 -11 25 12 13 17 24 24 25 17 0 -7
4 -11 9 -8 5 4 4 -7 -2 -23 -8 -23 -14 -28 -24 -19 -10 8 -13 7 -13 -3 0 -8
-50 -38 -113 -68 -103 -49 -126 -65 -127 -82 0 -4 18 -6 40 -5 38 2 40 0 46
-31 8 -41 23 -38 46 8 17 34 17 34 18 7 0 -44 20 -33 20 11 0 33 3 39 25 43
22 5 25 2 25 -21 -1 -43 -32 -94 -62 -102 -14 -4 -71 -6 -125 -5 -82 2 -108 7
-153 28 -141 65 -228 241 -178 359 33 77 142 153 265 184 82 21 233 14 294
-13z m3637 -89 c29 -36 58 -75 64 -87 6 -11 17 -25 24 -29 8 -4 14 -13 14 -18
0 -6 -4 -7 -10 -4 -5 3 -10 3 -10 -2 0 -4 14 -17 31 -28 17 -11 35 -28 40 -37
7 -14 1 -12 -27 7 -38 26 -60 32 -49 15 3 -5 1 -10 -4 -10 -6 0 -11 -4 -11 -8
0 -11 36 -49 52 -55 10 -3 10 -7 1 -17 -9 -10 -18 -5 -43 21 -17 19 -29 28
-25 22 3 -7 1 -13 -6 -13 -7 0 -5 -8 6 -20 16 -18 16 -20 2 -20 -11 0 -20 14
-27 43 -14 58 -76 251 -100 312 l-20 50 23 -29 c12 -16 46 -58 75 -93z m-510
32 c1 -1 0 -10 -4 -19 -9 -23 -24 -20 -24 5 0 11 -4 17 -10 14 -5 -3 -10 -1
-10 5 0 9 35 6 48 -5z m57 -7 c-11 -36 -22 -41 -17 -8 2 16 9 30 14 30 5 0 6
-10 3 -22z m25 -129 c0 -26 -28 -79 -41 -79 -6 0 -9 9 -6 20 3 11 0 20 -6 20
-8 0 -8 3 -2 8 6 4 16 19 24 34 15 30 31 28 31 -3z m30 7 c0 -3 -4 -8 -10 -11
-5 -3 -10 -1 -10 4 0 6 5 11 10 11 6 0 10 -2 10 -4z m7 -42 c-3 -3 -12 -4 -19
-1 -8 3 -5 6 6 6 11 1 17 -2 13 -5z m-3186 -51 c-10 -17 -10 -16 -11 3 0 23
13 41 18 25 2 -6 -1 -18 -7 -28z m3086 -20 c-3 -10 -5 -4 -5 12 0 17 2 24 5
18 2 -7 2 -21 0 -30z m-1000 -29 c3 -8 12 -14 20 -14 8 0 12 -4 9 -9 -4 -5 2
-7 11 -5 22 6 62 -21 49 -33 -5 -4 -11 -2 -13 5 -3 6 -10 9 -16 5 -7 -4 -26
-6 -44 -4 -21 1 -33 -2 -33 -9 0 -7 8 -10 20 -7 11 3 18 1 14 -4 -3 -5 9 -9
26 -9 19 0 29 -4 25 -11 -4 -5 -12 -8 -18 -6 -7 2 -24 1 -38 -3 -16 -5 -32 -2
-45 7 -21 16 -22 22 -2 34 9 6 9 9 1 9 -6 0 -18 -7 -27 -15 -8 -8 -19 -15 -25
-15 -14 0 -14 -17 -1 -25 6 -4 7 -11 4 -17 -4 -6 -2 -8 4 -4 6 3 13 3 16 -2
10 -17 -208 -147 -227 -135 -11 7 1 44 23 68 10 11 24 34 31 50 9 19 22 30 34
30 13 0 21 8 23 23 4 26 27 29 40 5 9 -15 11 -14 23 5 8 12 19 22 25 22 18 0
25 29 14 50 -8 15 -5 22 12 34 23 16 54 7 65 -20z m243 17 c0 -6 -5 -13 -10
-16 -6 -4 -8 -10 -6 -14 3 -4 -1 -8 -9 -8 -18 0 -18 3 -5 28 11 20 30 26 30
10z m2380 -24 c0 -5 -10 -5 -22 -1 -29 8 -31 10 -24 23 8 12 46 -7 46 -22z
m-3950 2 c0 -4 -7 -6 -15 -3 -8 4 -15 10 -15 15 0 4 7 6 15 3 8 -4 15 -10 15
-15z m-50 -45 c0 -19 -19 -27 -33 -15 -8 6 -18 6 -27 1 -20 -12 -1 -45 26 -45
10 0 23 -6 27 -12 4 -7 15 -13 22 -13 8 0 15 -4 15 -10 0 -14 -18 -12 -67 6
-47 18 -64 14 -43 -11 10 -12 10 -15 -4 -15 -21 0 -20 -16 2 -29 9 -6 12 -11
6 -11 -6 0 -28 11 -48 25 -33 23 -36 23 -36 5 0 -10 -8 -21 -17 -23 -15 -4
-14 -6 5 -12 36 -12 11 -30 -101 -74 -149 -57 -144 -56 -150 -24 -3 15 -8 37
-12 49 -5 17 1 24 35 39 23 10 116 60 208 111 165 91 192 99 192 58z m4035 27
c3 -5 1 -12 -5 -16 -5 -3 -10 -19 -10 -36 0 -27 -20 -44 -20 -16 0 6 -12 -1
-26 -17 -22 -25 -28 -27 -50 -17 -34 15 -27 30 31 61 27 14 51 32 53 38 4 14
19 16 27 3z m1165 -11 c0 -4 -7 -10 -15 -14 -8 -3 -15 -14 -15 -25 0 -11 -4
-22 -9 -26 -6 -3 -6 6 -1 25 7 26 6 30 -11 30 -24 0 -25 17 -1 22 22 5 52 -2
52 -12z m-2980 6 c0 -11 -19 -15 -25 -6 -3 5 1 10 9 10 9 0 16 -2 16 -4z
m2815 -46 c-3 -6 0 -10 7 -11 10 0 10 -2 1 -6 -10 -3 -9 -8 2 -20 8 -8 14 -24
14 -36 -2 -22 -2 -22 -6 1 -2 12 -9 20 -14 17 -5 -4 -12 2 -16 12 -9 25 -24
34 -48 27 -18 -4 -18 -4 -2 6 9 6 22 8 29 4 7 -4 8 -3 4 5 -4 6 -4 21 -1 32
l7 21 15 -21 c8 -12 11 -26 8 -31z m-2602 16 c4 -10 1 -13 -8 -9 -8 3 -12 9
-9 14 7 12 11 11 17 -5z m493 -37 c1 -5 2 -13 3 -19 0 -5 12 -10 25 -10 30 0
42 -16 26 -35 -10 -12 -16 -9 -41 16 -16 16 -29 39 -29 51 0 20 13 18 16 -3z
m-1259 -14 c6 -14 10 -25 9 -25 -6 0 -46 38 -46 44 0 16 26 3 37 -19z m714 2
c-10 -9 -11 -8 -5 6 3 10 9 15 12 12 3 -3 0 -11 -7 -18z m1731 -12 c-3 -20 0
-25 16 -25 20 0 32 -18 32 -49 0 -10 9 -26 20 -36 20 -18 22 -56 2 -63 -27 -9
-188 100 -176 119 3 5 2 9 -3 8 -21 -4 -34 2 -27 12 3 6 17 9 29 6 19 -3 25 1
30 21 6 23 7 24 20 6 8 -11 15 -14 15 -8 0 6 10 16 23 22 12 6 23 11 23 11 1
1 -1 -10 -4 -24z m-4861 -18 c-10 -9 -11 -8 -5 6 3 10 9 15 12 12 3 -3 0 -11
-7 -18z m2149 -1 c14 -18 14 -19 -8 -7 -12 7 -20 17 -16 22 3 6 7 9 8 7 1 -2
8 -12 16 -22z m330 -2 c0 -2 -9 -4 -21 -4 -11 0 -18 4 -14 10 5 8 35 3 35 -6z
m-370 -34 c0 -5 -5 -10 -11 -10 -5 0 -7 5 -4 10 3 6 8 10 11 10 2 0 4 -4 4
-10z m220 -15 c0 -8 -3 -16 -7 -18 -5 -3 -8 5 -8 18 0 13 3 21 8 18 4 -2 7
-10 7 -18z m625 -45 c-9 -14 -25 5 -25 30 0 12 3 12 16 -2 9 -9 13 -21 9 -28z
m132 8 c-3 -8 -6 -5 -6 6 -1 11 2 17 5 13 3 -3 4 -12 1 -19z m1623 14 c0 -5
-11 -14 -25 -20 -20 -9 -25 -9 -25 3 0 7 10 16 23 18 12 2 23 5 25 6 1 0 2 -3
2 -7z m-2642 -36 c14 5 14 3 -2 -10 -19 -15 -12 -22 17 -17 4 0 7 -3 7 -8 0
-5 -14 -14 -31 -20 -39 -14 -42 -14 -34 -1 4 7 -3 9 -21 6 l-27 -5 23 24 c13
13 28 22 34 18 6 -3 5 0 -1 8 -19 19 -16 33 2 15 9 -8 23 -13 33 -10z m1644 9
c0 -5 -5 -11 -11 -13 -6 -2 -11 4 -11 13 0 9 5 15 11 13 6 -2 11 -8 11 -13z
m1048 -12 c-1 -17 -52 -45 -62 -35 -7 7 -1 15 19 25 33 18 43 20 43 10z
m-2340 -28 c11 -13 10 -14 -4 -9 -9 3 -16 10 -16 15 0 13 6 11 20 -6z m-2200
-27 l0 -22 21 23 c17 18 23 20 30 9 8 -11 10 -11 18 0 6 10 11 6 19 -16 10
-29 9 -31 -20 -41 -30 -11 -68 -15 -68 -7 0 2 -7 20 -15 40 -14 32 -14 36 0
36 9 0 15 -9 15 -22z m2689 -4 c-12 -15 -39 -19 -39 -6 0 15 22 30 36 25 11
-4 12 -9 3 -19z m191 14 c0 -4 -4 -8 -9 -8 -6 0 -12 4 -15 8 -3 5 1 9 9 9 8 0
15 -4 15 -9z m65 2 c-3 -5 -10 -10 -16 -10 -5 0 -9 5 -9 10 0 6 7 10 16 10 8
0 12 -4 9 -10z m-795 -9 c0 -5 -7 -11 -15 -15 -15 -5 -20 5 -8 17 9 10 23 9
23 -2z m1930 -3 c0 -5 16 -6 35 -2 38 7 41 3 24 -27 -8 -16 -13 -18 -25 -8
-11 9 -17 9 -28 0 -10 -9 -16 -9 -21 -1 -4 6 -12 9 -18 7 -16 -6 -47 11 -47
26 0 7 16 12 40 12 22 1 40 -3 40 -7z m484 -27 c8 -12 -82 -74 -99 -67 -22 8
-18 26 6 26 29 0 59 18 59 35 0 16 25 21 34 6z m-4684 -20 c0 -12 7 -18 17
-17 34 2 25 -30 -12 -41 l-35 -11 0 44 c0 32 4 44 15 44 8 0 15 -8 15 -19z
m2280 -7 c0 -2 -9 -4 -21 -4 -11 0 -18 4 -14 10 5 8 35 3 35 -6z m-2414 -42
c-9 -17 -26 -34 -38 -38 -22 -8 -98 -13 -98 -7 0 2 9 12 20 23 17 17 21 17 33
5 17 -17 27 -10 27 19 0 17 2 18 9 6 6 -8 7 -18 5 -22 -3 -4 0 -8 5 -8 6 0 11
11 11 24 0 15 7 26 18 28 25 6 25 3 8 -30z m5824 3 c0 -5 -5 -3 -10 5 -6 9
-10 11 -10 3 0 -7 -7 -10 -15 -7 -8 4 -15 10 -15 16 0 5 4 7 9 3 5 -3 13 0 17
6 7 12 24 -6 24 -26z m180 26 c0 -5 -6 -14 -14 -20 -11 -9 -15 -8 -20 4 -3 9
-2 13 4 10 6 -3 10 -1 10 4 0 6 5 11 10 11 6 0 10 -4 10 -9z m-3900 -31 c0 -5
8 -10 17 -10 13 0 14 -3 5 -12 -10 -10 -17 -7 -34 10 -19 19 -20 22 -5 22 9 0
17 -4 17 -10z m2765 -22 c14 -18 33 -41 41 -51 24 -29 11 -30 -41 -2 -32 16
-52 22 -59 15 -7 -5 -31 -12 -55 -16 -34 -5 -43 -4 -39 6 2 7 13 15 23 16 11
2 21 8 23 13 2 6 13 11 25 12 12 0 16 3 9 6 -10 4 -10 8 -1 19 19 23 45 16 74
-18z m-2525 18 c0 -3 -4 -8 -10 -11 -5 -3 -10 -1 -10 4 0 6 5 11 10 11 6 0 10
-2 10 -4z m-360 -36 c11 -1 11 -3 2 -7 -6 -2 -10 -9 -6 -14 3 -5 1 -9 -5 -9
-5 0 -17 -3 -27 -7 -13 -5 -15 -3 -9 7 6 10 4 12 -8 7 -10 -3 -17 -2 -17 4 0
6 -4 7 -10 4 -5 -3 -8 0 -5 7 5 11 29 14 85 8z m4053 -13 c-2 -4 -3 -12 -3
-18 0 -8 -5 -8 -15 1 -20 17 -19 29 3 26 9 -2 16 -6 15 -9z m-3673 -11 c0 -3
-4 -8 -10 -11 -5 -3 -10 -1 -10 4 0 6 5 11 10 11 6 0 10 -2 10 -4z m40 -6 c0
-5 -5 -10 -11 -10 -5 0 -7 5 -4 10 3 6 8 10 11 10 2 0 4 -4 4 -10z m1875 0 c3
-5 1 -10 -4 -10 -6 0 -11 5 -11 10 0 6 2 10 4 10 3 0 8 -4 11 -10z m30 0 c3
-5 1 -10 -4 -10 -6 0 -11 5 -11 10 0 6 2 10 4 10 3 0 8 -4 11 -10z m-2881 -42
c20 -39 21 -35 -9 -40 -22 -5 -65 21 -65 38 0 10 45 42 52 38 4 -2 14 -18 22
-36z m656 38 c0 -2 -7 -7 -16 -10 -8 -3 -12 -2 -9 4 6 10 25 14 25 6z m2287
-15 c15 -24 8 -31 -35 -31 l-35 0 24 24 c30 30 32 30 46 7z m28 9 c-3 -5 -11
-10 -16 -10 -6 0 -7 5 -4 10 3 6 11 10 16 10 6 0 7 -4 4 -10z m1005 -82 c-25
-21 -29 -21 -50 -8 -12 7 -12 12 4 29 15 17 22 18 43 8 l25 -11 -22 -18z
m-3040 12 c0 -5 -2 -10 -4 -10 -3 0 -8 5 -11 10 -3 6 -1 10 4 10 6 0 11 -4 11
-10z m513 -66 c-9 -21 -43 -29 -43 -9 0 10 40 36 48 30 1 -1 -1 -11 -5 -21z
m2662 16 c3 -6 -1 -7 -9 -4 -18 7 -21 14 -7 14 6 0 13 -4 16 -10z m-4989 -36
c-15 -11 -22 -11 -34 -1 -13 10 -11 13 14 18 37 7 44 1 20 -17z m5274 -54 c13
-15 19 -17 23 -8 4 8 6 7 6 -4 1 -10 4 -17 9 -17 4 1 16 1 27 0 34 -3 -6 -20
-53 -22 -22 -2 -39 -6 -36 -10 2 -4 -2 -10 -8 -12 -8 -4 -5 -8 9 -12 12 -4 24
-13 27 -21 3 -8 10 -14 16 -14 6 0 8 6 4 13 -6 9 -4 9 8 -1 13 -10 17 -10 22
4 4 9 9 14 12 11 3 -3 -2 -19 -11 -36 -15 -30 -4 -45 12 -16 7 12 13 10 36
-11 15 -13 27 -30 26 -37 0 -9 -2 -9 -6 1 -2 6 -9 9 -15 6 -5 -3 -16 2 -23 12
-14 18 -14 18 -15 1 0 -10 -4 -15 -10 -12 -5 3 -10 -2 -11 -12 0 -11 -3 -13
-6 -5 -3 9 -9 10 -18 2 -10 -8 -36 -9 -62 -1 -2 1 -5 0 -6 -1 -2 -2 -11 3 -20
11 -15 12 -17 11 -17 -5 0 -17 -1 -17 -16 2 -11 13 -17 15 -20 7 -3 -7 -10
-13 -16 -13 -13 0 -38 -26 -32 -33 3 -3 13 -3 22 0 13 3 13 1 -2 -11 -11 -9
-29 -16 -40 -16 -12 0 -44 -11 -73 -24 -45 -21 -52 -22 -58 -8 -6 15 10 32 31
32 6 0 19 10 30 21 10 12 29 25 42 30 14 5 25 20 29 39 4 25 14 35 46 47 l40
16 -23 19 c-31 25 -44 23 -112 -18 -63 -38 -92 -43 -142 -24 -33 12 -31 19 8
22 19 2 31 10 37 24 4 12 17 25 28 29 14 4 21 15 21 31 0 14 11 40 25 58 14
18 23 35 20 37 -2 3 46 -8 107 -23 74 -19 117 -35 128 -48z m-3330 60 c0 -5
-5 -10 -11 -10 -5 0 -7 5 -4 10 3 6 8 10 11 10 2 0 4 -4 4 -10z m-1891 -9 c7
-5 27 -5 43 -1 36 11 28 -3 -12 -20 -34 -14 -60 -8 -60 15 0 17 9 19 29 6z
m-155 -26 c-19 -14 -19 -14 2 -15 23 0 80 -26 89 -41 13 -20 -103 3 -143 29
l-24 16 44 17 c48 19 62 16 32 -6z m756 15 c0 -5 -7 -7 -15 -4 -8 4 -15 8 -15
10 0 2 7 4 15 4 8 0 15 -4 15 -10z m2985 0 c3 -5 -1 -10 -9 -10 -9 0 -16 5
-16 10 0 6 4 10 9 10 6 0 13 -4 16 -10z m185 0 c0 -5 -7 -7 -15 -4 -8 4 -15 8
-15 10 0 2 7 4 15 4 8 0 15 -4 15 -10z m-231 -27 c18 -8 29 -9 38 -2 15 13 33
4 33 -17 0 -16 -16 -19 -25 -4 -3 5 -12 7 -20 3 -9 -3 -22 0 -30 7 -8 7 -22
10 -30 6 -8 -3 -15 -4 -15 -2 0 3 -3 12 -6 20 -7 17 6 15 55 -11z m-95 2 c-4
-8 -8 -15 -10 -15 -2 0 -4 7 -4 15 0 8 4 15 10 15 5 0 7 -7 4 -15z m-1186 -27
c27 -27 -4 -45 -38 -21 -17 12 -19 17 -9 24 19 12 33 11 47 -3z m-2525 -26
c-2 -15 3 -22 13 -22 14 0 14 -3 4 -15 -16 -19 -10 -26 31 -34 32 -6 30 -7
-41 -35 -94 -37 -105 -32 -113 57 -4 34 -1 38 43 59 45 22 66 18 63 -10z m824
6 c28 15 81 -5 85 -33 2 -13 12 -21 31 -23 33 -4 36 -20 5 -26 -71 -14 -84
-14 -107 4 l-24 18 31 7 c18 3 32 11 32 16 0 9 -6 10 -63 14 -33 2 -52 18 -42
35 5 8 11 6 19 -6 10 -13 17 -14 33 -6z m1765 -7 c-3 -9 -1 -12 6 -7 11 7 11
-2 2 -44 0 -3 -7 4 -15 14 -8 11 -15 14 -15 8 0 -7 -6 -12 -14 -12 -9 0 -12 7
-9 20 3 11 10 20 15 20 5 0 7 4 4 8 -2 4 4 8 14 8 11 0 16 -5 12 -15z m-929
-19 c-3 -13 -14 -18 -38 -17 -18 0 -37 4 -42 8 -4 5 -3 8 2 6 6 -1 17 1 25 4
8 3 24 8 35 10 11 3 21 5 22 6 0 0 -1 -7 -4 -17z m-93 -2 c0 -5 -2 -10 -4 -10
-3 0 -8 5 -11 10 -3 6 -1 10 4 10 6 0 11 -4 11 -10z m-1737 -39 c-4 -16 -1
-19 17 -14 l22 6 -23 -25 c-13 -13 -27 -22 -32 -18 -9 8 2 70 13 70 5 0 6 -9
3 -19z m-23 2 c0 -5 -7 -17 -15 -27 -14 -18 -15 -18 -21 -2 -4 11 -1 22 7 27
17 11 29 11 29 2z m4725 -30 c-10 -15 -20 -22 -22 -16 -3 7 -11 9 -19 6 -8 -3
-22 -2 -31 1 -14 6 -14 9 6 22 12 9 28 14 35 11 7 -3 19 -1 27 3 22 14 23 3 4
-27z m-3788 0 c5 -15 -28 -26 -41 -13 -8 8 -7 14 4 20 17 11 32 8 37 -7z
m5014 -24 c-12 -10 -29 -15 -37 -12 -17 6 -13 29 5 26 6 -2 11 1 11 6 0 5 10
7 22 3 l21 -5 -22 -18z m-3064 -11 c-3 -8 -6 -5 -6 6 -1 11 2 17 5 13 3 -3 4
-12 1 -19z m3007 -15 c6 -16 -10 -27 -19 -13 -5 7 -12 5 -21 -7 -12 -17 -13
-16 -14 10 0 15 5 27 11 27 5 0 7 5 4 11 -4 6 2 5 14 -3 11 -7 23 -18 25 -25z
m-3954 16 c0 -6 7 -9 15 -5 16 6 17 1 6 -28 -7 -17 -8 -18 -24 -1 -14 13 -21
14 -32 5 -8 -6 -19 -9 -25 -5 -17 10 -11 25 10 25 11 0 20 5 20 10 0 6 7 10
15 10 8 0 15 -5 15 -11z m1144 -53 c15 -5 17 -9 8 -18 -14 -14 -16 -42 -3 -34
5 3 11 0 14 -8 3 -7 28 -16 56 -20 27 -4 53 -11 57 -17 4 -6 14 -4 30 6 16 10
24 11 24 4 0 -8 12 -10 34 -6 24 4 36 1 40 -9 4 -9 14 -12 34 -8 22 4 31 2 36
-11 3 -10 12 -15 21 -11 17 6 31 -12 19 -24 -5 -5 -27 -11 -49 -13 -30 -4 -48
1 -73 18 -19 13 -40 21 -47 18 -8 -2 -23 1 -35 7 -18 10 -24 9 -31 -1 -6 -11
-12 -10 -27 4 -10 9 -22 14 -25 10 -11 -10 -51 -11 -58 0 -4 6 -18 4 -37 -6
-18 -8 -32 -11 -34 -5 -2 5 -16 0 -31 -12 -20 -16 -27 -18 -27 -7 0 10 -8 13
-25 9 -20 -3 -25 0 -25 17 0 12 -4 19 -10 16 -5 -3 -10 -3 -10 2 0 14 54 33
78 27 12 -4 22 -3 22 2 0 13 -32 44 -47 44 -7 0 -13 4 -13 9 0 6 12 6 31 -1
16 -6 33 -8 36 -4 3 3 12 1 20 -6 22 -18 26 -2 7 34 -16 32 -16 33 2 17 11 -9
28 -19 38 -23z m996 25 c0 -16 -28 -20 -34 -5 -4 9 1 14 14 14 11 0 20 -4 20
-9z m-1481 -31 c-13 -16 -24 -28 -27 -26 -5 6 31 55 41 56 4 0 -2 -13 -14 -30z
m261 20 c0 -5 -5 -10 -11 -10 -5 0 -7 5 -4 10 3 6 8 10 11 10 2 0 4 -4 4 -10z
m-740 -60 c0 -5 -4 -10 -10 -10 -5 0 -10 5 -10 10 0 6 5 10 10 10 6 0 10 -4
10 -10z m120 -5 c0 -12 -19 -12 -23 0 -4 9 -1 12 9 8 7 -3 14 -7 14 -8z m3517
-7 c-3 -8 -6 -5 -6 6 -1 11 2 17 5 13 3 -3 4 -12 1 -19z m-3677 -28 c0 -5 -4
-10 -10 -10 -5 0 -10 5 -10 10 0 6 5 10 10 10 6 0 10 -4 10 -10z m3945 -32
l16 -33 -20 25 c-20 24 -26 40 -16 40 2 0 12 -15 20 -32z m-3692 0 c28 0 37
-4 33 -14 -3 -8 1 -14 9 -14 8 0 15 -4 15 -10 0 -15 -40 -51 -50 -45 -5 3 -18
-5 -29 -17 -18 -19 -21 -19 -21 -4 0 13 -5 16 -21 11 -26 -9 -72 2 -64 15 3 6
-4 10 -17 11 -20 0 -18 2 9 12 17 7 34 15 38 19 3 3 22 2 42 -4 19 -5 38 -6
41 -3 12 12 -39 45 -70 45 -16 0 -27 4 -23 9 3 6 18 6 38 0 17 -5 49 -10 70
-11z m-475 -18 c-13 -21 -28 -27 -28 -10 0 5 8 14 18 19 23 14 24 14 10 -9z
m3777 -20 c-7 -21 12 -28 31 -11 5 5 19 -1 34 -16 14 -14 20 -23 14 -19 -7 3
-14 -3 -17 -15 -4 -16 -11 -19 -26 -14 -13 4 -21 2 -21 -6 0 -9 -3 -9 -14 0
-8 7 -23 14 -35 16 -11 2 -28 8 -38 13 -12 7 -20 6 -28 -5 -9 -12 -16 -13 -32
-4 -16 8 -22 8 -26 -3 -3 -8 -28 -21 -56 -31 -42 -13 -56 -14 -90 -4 -46 14
-47 24 0 27 18 1 37 9 43 18 8 10 32 17 69 19 32 2 69 11 83 20 14 9 33 13 45
10 12 -4 21 -1 25 9 3 9 15 16 26 16 15 0 18 -5 13 -20z m-5305 -15 c-7 -8
-20 -15 -30 -15 -10 0 -23 7 -30 15 -11 13 -7 15 30 15 37 0 41 -2 30 -15z
m2500 1 c0 -3 -4 -8 -10 -11 -5 -3 -10 -1 -10 4 0 6 5 11 10 11 6 0 10 -2 10
-4z m105 -6 c4 -6 -6 -10 -22 -10 -22 0 -25 2 -13 10 19 12 27 12 35 0z m184
-62 c17 -12 31 -14 52 -8 23 7 31 5 36 -6 5 -13 15 -14 51 -9 l46 7 -32 -30
-32 -30 -55 28 c-30 15 -55 24 -55 19 0 -5 -9 -9 -20 -9 -11 0 -20 4 -20 10 0
5 -9 17 -20 27 -19 18 -19 19 4 18 12 -1 33 -9 45 -17z m-169 -20 c0 -12 -28
3 -34 18 -4 11 -2 12 14 1 11 -6 20 -15 20 -19z m-900 12 c0 -5 -4 -10 -10
-10 -5 0 -10 5 -10 10 0 6 5 10 10 10 6 0 10 -4 10 -10z m165 0 c16 -7 11 -9
-20 -9 -29 -1 -36 2 -25 9 17 11 19 11 45 0z m836 -7 c13 -16 12 -17 -3 -4
-17 13 -22 21 -14 21 2 0 10 -8 17 -17z m2669 -15 c0 -4 -7 -8 -15 -8 -8 0
-15 4 -15 8 0 5 7 9 15 9 8 0 15 -4 15 -9z m-2926 -14 c11 -27 7 -37 -9 -24
-16 14 -20 40 -6 40 5 0 12 -7 15 -16z m-1977 -28 c3 -3 -10 -6 -30 -6 -20 0
-38 3 -40 8 -6 9 61 8 70 -2z m1423 -2 l25 -15 -25 7 c-14 3 -32 10 -40 15
-13 7 -13 8 0 8 8 0 26 -6 40 -15z m656 1 c4 -8 3 -23 -1 -32 -7 -17 -8 -16
-15 2 -5 11 -9 26 -9 33 -1 17 18 15 25 -3z m2664 -20 c-15 -18 0 -20 20 -2
12 10 12 9 1 -5 -14 -19 -101 -26 -101 -9 0 5 11 8 25 7 14 -2 30 3 36 10 6 8
16 14 21 14 6 0 5 -7 -2 -15z m140 0 c-7 -8 -18 -15 -24 -15 -6 0 -2 7 8 15
25 19 32 19 16 0z m-2740 -21 c0 -8 -5 -12 -10 -9 -6 4 -8 11 -5 16 9 14 15
11 15 -7z m-778 -18 c4 -5 4 -14 2 -18 -10 -16 -31 -8 -42 16 -10 22 -9 23 11
18 12 -3 25 -10 29 -16z m-1961 -13 c-5 -19 -13 -27 -25 -25 -14 3 -16 -1 -11
-19 7 -22 7 -22 -9 -6 -10 9 -32 17 -49 17 -30 0 -31 1 -13 18 13 12 20 14 23
5 3 -9 10 -10 22 -3 10 5 20 7 23 5 3 -3 13 4 23 15 23 26 25 25 16 -7z m2632
-7 c29 -7 32 -13 18 -35 -14 -22 -80 25 -81 58 0 12 3 11 18 -1 9 -8 29 -18
45 -22z m2607 28 c0 -3 -5 -15 -11 -26 -10 -19 -9 -20 10 -15 11 3 21 2 21 -3
0 -8 -52 -19 -126 -26 -41 -4 -107 16 -119 37 -4 6 2 5 14 -3 17 -10 25 -10
41 -1 10 7 25 10 33 7 8 -3 20 2 27 11 10 12 16 13 26 4 11 -9 19 -8 36 4 23
16 48 22 48 11z m366 -10 c-3 -9 -6 -18 -6 -20 0 -2 -4 -4 -9 -4 -5 0 -7 9 -4
20 3 11 10 20 15 20 6 0 7 -7 4 -16z m-5510 -7 c3 -3 -3 -10 -14 -16 -11 -6
-22 -8 -25 -5 -3 3 -13 2 -22 -3 -13 -8 -12 -11 10 -23 37 -20 30 -33 -7 -14
-18 9 -34 18 -36 19 -2 2 4 14 13 28 12 18 23 24 46 22 16 -1 32 -5 35 -8z
m764 -6 c12 -1 11 -4 -3 -12 -10 -6 -25 -8 -32 -5 -8 3 -17 1 -20 -4 -3 -6
-24 -9 -47 -8 -40 1 -40 2 -21 18 18 14 59 18 123 11z m1192 -23 c-7 -7 -12
-8 -12 -2 0 14 12 26 19 19 2 -3 -1 -11 -7 -17z m3464 6 c-3 -9 -6 -17 -6 -20
0 -2 -7 -1 -15 2 -12 5 -13 10 -4 20 16 19 33 18 25 -2z m-3073 -26 c-30 -31
-43 -35 -43 -14 0 17 33 43 55 43 11 0 8 -8 -12 -29z m633 18 c62 11 35 -4
-52 -31 -96 -29 -144 -27 -141 6 2 35 74 33 98 -3 3 -4 16 3 29 17 14 15 26
21 28 15 2 -6 17 -8 38 -4z m-1243 -7 c21 -12 38 -15 85 -18 23 -1 27 -8 14
-29 -10 -15 -97 11 -127 39 -22 22 -6 26 28 8z m472 -7 c-3 -3 -11 0 -18 7 -9
10 -8 11 6 5 10 -3 15 -9 12 -12z m-2356 -44 c11 -18 10 -18 -17 -4 -16 8 -29
21 -29 29 0 19 28 3 46 -25z m3926 32 c3 -6 -1 -7 -9 -4 -18 7 -21 14 -7 14 6
0 13 -4 16 -10z m1715 -7 c-1 -13 -24 -37 -48 -50 -29 -17 -32 -16 -32 6 0 13
9 21 30 26 17 4 30 11 30 16 0 5 5 9 10 9 6 0 10 -3 10 -7z m380 -33 c-9 -6
-17 -5 -22 3 -9 15 14 29 27 16 6 -6 5 -13 -5 -19z m-94 -2 c4 -5 10 -5 17 0
7 5 21 6 32 2 17 -6 15 -9 -19 -24 -43 -18 -66 -20 -66 -7 0 5 -9 12 -19 16
-31 10 -15 32 20 27 16 -2 32 -9 35 -14z m-3332 -9 c-8 -14 -24 -10 -24 6 0 9
6 12 15 9 8 -4 12 -10 9 -15z m3189 -7 c13 -12 14 -17 5 -23 -14 -9 -34 5 -49
32 -8 15 -6 17 8 12 10 -3 26 -13 36 -21z m-3988 -12 c3 -5 1 -10 -4 -10 -6 0
-11 5 -11 10 0 6 2 10 4 10 3 0 8 -4 11 -10z m3525 0 c0 -5 8 -6 17 -3 13 5
15 2 10 -11 -4 -10 -7 -21 -7 -25 0 -9 -83 -1 -94 9 -4 5 -5 13 -1 20 5 8 11
8 22 -2 12 -10 17 -9 24 5 11 18 29 23 29 7z m-4673 -26 c-3 -3 -12 -4 -19 -1
-8 3 -5 6 6 6 11 1 17 -2 13 -5z m2203 -14 c6 -11 8 -20 6 -20 -3 0 -10 9 -16
20 -6 11 -8 20 -6 20 3 0 10 -9 16 -20z m113 6 c31 -1 57 -4 57 -8 0 -3 14 0
30 9 45 22 61 10 20 -16 -34 -21 -56 -22 -182 -12 -4 1 -12 10 -18 20 -9 18
-7 19 12 14 13 -4 49 -7 81 -7z m2717 -6 c0 -5 -8 -10 -17 -10 -15 0 -16 2 -3
10 19 12 20 12 20 0z m-3250 -40 c0 -5 -2 -10 -4 -10 -3 0 -8 5 -11 10 -3 6
-1 10 4 10 6 0 11 -4 11 -10z m75 -12 c-3 -9 -17 -20 -31 -27 -23 -10 -24 -9
-14 9 10 18 41 42 48 36 1 -2 0 -10 -3 -18z m-45 8 c0 -3 -4 -8 -10 -11 -5 -3
-10 -1 -10 4 0 6 5 11 10 11 6 0 10 -2 10 -4z m-850 -18 c0 -4 -8 -12 -17 -17
-27 -15 -10 -13 32 5 37 15 57 12 39 -6 -19 -18 -188 -38 -198 -22 -7 12 41
45 54 37 6 -3 10 -2 10 4 0 5 18 9 40 8 22 -1 40 -5 40 -9z m1046 -23 c3 -14
10 -25 16 -25 5 0 6 9 3 20 -5 14 -2 20 9 20 9 0 16 -5 16 -11 0 -5 4 -8 9 -5
13 9 20 -31 8 -43 -8 -8 -4 -16 13 -29 14 -9 28 -16 32 -15 4 2 5 -4 2 -12 -8
-20 -7 -20 -47 20 -19 19 -39 35 -44 35 -25 0 -112 32 -116 43 -6 15 45 17 55
2 5 -6 8 -3 8 8 0 26 29 20 36 -8z m-2801 -5 c3 -5 -4 -6 -15 -3 -11 3 -22 9
-25 13 -3 5 4 6 15 3 11 -3 22 -9 25 -13z m2084 -6 c25 -32 34 -30 27 4 -3 15
-3 22 0 15 3 -7 11 -10 19 -7 7 3 16 1 19 -4 3 -6 16 -8 29 -5 18 4 19 3 7 -6
-12 -9 -11 -11 10 -12 14 -1 32 -1 40 0 11 1 10 -2 -4 -13 -17 -14 -17 -16 -3
-30 9 -9 22 -13 30 -10 9 3 31 1 50 -4 28 -8 38 -7 51 6 12 12 16 13 16 3 0
-10 3 -11 14 -2 10 8 16 9 21 1 3 -5 3 -11 -2 -11 -4 -1 -17 -3 -28 -5 -11 -2
-37 -7 -57 -12 -46 -12 -86 -4 -153 31 -30 15 -75 28 -115 32 -80 7 -140 23
-140 35 0 6 9 6 24 0 17 -6 26 -5 29 3 3 9 9 9 26 0 27 -16 32 -16 25 1 -9 24
45 16 65 -10z m-2936 3 c3 -8 2 -18 -1 -23 -10 -14 -63 -54 -72 -54 -9 0 5 68
15 78 4 4 4 -8 0 -25 -6 -29 -4 -32 11 -26 10 4 13 8 7 10 -9 3 -9 11 -1 29
12 26 33 32 41 11z m3437 9 c0 -9 -30 -14 -35 -6 -4 6 3 10 14 10 12 0 21 -2
21 -4z m-3160 -14 c0 -4 -11 -9 -25 -10 -14 -1 -25 2 -25 6 0 4 11 9 25 10 14
1 25 -2 25 -6z m5243 -3 c-8 -8 -16 -8 -30 0 -16 9 -14 10 12 11 21 0 26 -3
18 -11z m1259 -34 c5 -6 8 -6 8 2 0 6 -4 15 -10 18 -20 13 -9 22 22 19 21 -3
41 -15 59 -37 27 -32 31 -45 8 -31 -7 4 -27 8 -45 10 -44 4 -94 31 -94 51 0
14 3 14 23 -3 12 -10 25 -23 29 -29z m-149 0 c7 16 10 17 17 5 7 -11 11 -12
24 0 14 11 16 10 11 -3 -7 -16 -35 -30 -98 -46 -21 -5 -50 -22 -64 -37 -20
-21 -27 -24 -33 -13 -6 8 -4 20 6 30 16 18 19 33 4 24 -22 -14 -8 14 15 29 14
9 25 14 25 11 0 -3 8 -1 19 4 16 9 18 7 14 -17 l-3 -27 12 25 c18 36 32 43 38
17 6 -21 6 -21 13 -2z m-370 -30 c-2 -5 4 1 15 14 22 28 48 21 32 -9 -8 -16
-7 -19 12 -18 13 1 30 6 38 12 12 8 13 8 3 -4 -21 -23 -15 -35 7 -15 18 17 20
17 14 2 -6 -15 -12 -19 -30 -16 -4 0 -10 -5 -14 -11 -11 -17 -71 -28 -105 -18
-16 4 -50 11 -75 14 -25 3 -49 10 -54 15 -14 13 9 33 26 23 7 -5 24 -9 38 -9
14 0 31 -4 38 -8 6 -5 17 -5 23 -1 6 3 15 0 20 -7 6 -9 7 3 4 31 -3 30 -2 40
4 30 5 -8 7 -19 4 -25z m-3451 7 c7 -7 20 -12 30 -12 10 0 17 -6 16 -12 -2 -8
5 -12 15 -10 29 5 31 -25 3 -55 -21 -23 -28 -25 -35 -14 -5 8 -7 20 -4 27 2 6
-14 27 -36 45 -23 18 -41 36 -41 41 0 11 38 4 52 -10z m771 -10 c15 -16 24
-32 20 -36 -4 -4 1 -4 11 0 16 6 17 3 11 -17 -11 -38 -41 -74 -61 -74 -13 0
-20 8 -21 25 -2 14 -5 37 -7 52 -2 16 0 30 4 33 11 7 23 -31 15 -45 -4 -6 -1
-9 7 -8 8 2 12 -6 11 -22 -2 -22 -2 -23 6 -5 8 21 -3 57 -26 86 -15 17 -17 39
-5 39 5 0 20 -13 35 -28z m-3446 -4 c-3 -8 -6 -5 -6 6 -1 11 2 17 5 13 3 -3 4
-12 1 -19z m4083 17 c0 -4 -7 -19 -15 -35 -18 -35 -70 -52 -162 -54 -47 -1
-65 3 -75 16 -7 9 -31 19 -52 23 -68 10 -54 16 33 14 50 -1 87 3 94 10 19 19
27 12 27 -21 l0 -33 20 25 c13 17 20 20 20 10 0 -10 6 -8 19 9 13 17 20 20 26
12 5 -9 11 -7 22 8 13 19 43 29 43 16z m-1428 -67 c-18 -18 -40 -18 -37 1 2 9
4 25 4 36 1 19 2 19 23 -3 17 -17 20 -24 10 -34z m1053 42 c3 -5 -1 -10 -9
-10 -9 0 -16 5 -16 10 0 6 4 10 9 10 6 0 13 -4 16 -10z m3255 -5 c7 -8 9 -15
6 -15 -4 0 -14 7 -22 15 -9 8 -11 15 -6 15 5 0 15 -7 22 -15z m-412 -61 c1
-32 -2 -53 -7 -50 -5 3 -7 -2 -4 -13 3 -11 -2 -21 -11 -24 -11 -4 -16 -1 -16
11 0 13 -2 14 -9 4 -6 -10 -13 -3 -24 25 -10 26 -12 39 -4 42 6 2 22 17 35 32
13 16 27 29 31 29 4 0 8 -25 9 -56z m275 32 c4 -10 1 -13 -8 -9 -8 3 -12 9 -9
14 7 12 11 11 17 -5z m-4135 -41 c1 -18 -3 -25 -16 -25 -33 0 -43 14 -27 38
19 26 40 20 43 -13z m147 25 c-3 -5 -12 -10 -18 -10 -7 0 -6 4 3 10 19 12 23
12 15 0z m712 -35 c-4 -33 -21 -33 -25 0 -2 18 1 25 13 25 11 0 15 -7 12 -25z
m-3367 11 c0 -3 -4 -8 -10 -11 -5 -3 -10 -1 -10 4 0 6 5 11 10 11 6 0 10 -2
10 -4z m-35 -16 c-3 -5 2 -10 12 -10 13 -1 -49 -29 -65 -30 -4 0 52 49 56 50
2 0 0 -4 -3 -10z m5212 -6 c3 -8 11 -13 18 -10 13 5 30 -22 21 -32 -8 -7 -87
-4 -134 6 -45 10 -80 32 -51 32 8 0 20 -5 27 -12 8 -8 15 -8 28 3 21 18 20 18
38 -6 14 -19 15 -19 21 8 8 30 22 35 32 11z m-3987 -4 c0 -5 7 -7 15 -4 8 4
17 -1 21 -10 3 -9 11 -13 18 -9 8 4 8 3 0 -6 -16 -17 -78 0 -82 22 -2 10 3 17
12 17 9 0 16 -4 16 -10z m1100 -8 c30 -13 25 -14 -62 -13 -37 0 -84 -5 -105
-12 -37 -13 -73 -12 -73 1 0 4 23 14 52 22 59 17 151 18 188 2z m3962 -13 c-5
-24 -39 -52 -46 -40 -4 6 -2 11 4 11 6 0 9 4 6 9 -4 5 -3 16 0 24 7 19 40 15
36 -4z m-4886 -4 c-3 -20 -16 -31 -16 -13 0 13 8 28 16 28 1 0 1 -7 0 -15z
m-69 -17 c-3 -8 -6 -5 -6 6 -1 11 2 17 5 13 3 -3 4 -12 1 -19z m1784 2 c12 0
20 -3 16 -6 -9 -10 -77 5 -77 17 0 6 7 6 19 -1 11 -5 30 -10 42 -10z m2799 -5
c7 17 9 16 10 -10 2 -18 4 -23 7 -12 2 9 9 17 14 17 5 0 9 -8 9 -17 1 -14 4
-12 15 7 12 21 14 22 15 6 0 -15 3 -16 15 -6 13 11 15 8 15 -14 0 -21 -5 -26
-26 -26 -39 0 -124 40 -124 59 0 14 2 14 10 1 8 -12 10 -12 10 5 1 17 3 16 12
-5 10 -24 10 -24 18 -5z m-5903 9 c-3 -3 -12 -4 -19 -1 -8 3 -5 6 6 6 11 1 17
-2 13 -5z m1353 -4 c0 -5 -4 -10 -10 -10 -5 0 -10 5 -10 10 0 6 5 10 10 10 6
0 10 -4 10 -10z m1680 -12 c0 -6 -6 -5 -15 2 -8 7 -15 14 -15 16 0 2 7 1 15
-2 8 -4 15 -11 15 -16z m550 -13 c14 -19 14 -19 -2 -6 -10 7 -18 18 -18 24 0
6 1 8 3 6 1 -2 9 -13 17 -24z m-3680 5 c0 -5 -5 -10 -11 -10 -5 0 -7 5 -4 10
3 6 8 10 11 10 2 0 4 -4 4 -10z m80 4 c0 -8 -19 -13 -24 -6 -3 5 1 9 9 9 8 0
15 -2 15 -3z m3729 -18 c-70 -35 -77 -36 -94 -20 -20 20 -9 37 14 22 14 -9 23
-7 42 5 13 10 37 17 54 16 29 0 29 -1 -16 -23z m2889 -4 c24 -12 46 -20 50
-18 4 2 16 -2 27 -10 17 -13 15 -14 -26 -14 -28 0 -53 7 -69 20 -17 13 -41 20
-74 20 -46 0 -48 1 -30 14 26 20 70 15 122 -12z m-3603 8 c3 -5 -3 -10 -14
-10 -12 0 -21 5 -21 10 0 6 6 10 14 10 8 0 18 -4 21 -10z m556 -12 c11 -21 11
-22 -4 -9 -10 7 -17 17 -17 22 0 15 9 10 21 -13z m2533 -3 c-4 -8 -11 -15 -16
-15 -6 0 -5 6 2 15 7 8 14 15 16 15 2 0 1 -7 -2 -15z m-6557 -1 c-3 -3 -12 -4
-19 -1 -8 3 -5 6 6 6 11 1 17 -2 13 -5z m3041 -27 l27 -26 1 25 c1 16 -3 24
-14 24 -8 0 -13 3 -9 6 8 8 48 -6 43 -14 -2 -4 9 -26 25 -49 l28 -43 -25 2
c-14 2 -30 8 -35 14 -5 7 -27 10 -52 7 -40 -4 -43 -2 -70 37 -16 24 -32 38
-39 34 -7 -4 -8 -3 -4 4 13 21 95 7 124 -21z m3473 10 c-10 -9 -11 -8 -5 6 3
10 9 15 12 12 3 -3 0 -11 -7 -18z m-6086 -17 c-5 -9 -58 -23 -72 -20 -5 1 -7
6 -6 10 2 5 -14 6 -35 3 -20 -3 -34 -3 -30 1 12 13 67 17 88 6 16 -8 20 -8 20
4 0 9 7 12 20 9 11 -3 18 -9 15 -13z m2536 -32 c11 -20 1 -22 -38 -12 -16 4
-23 14 -23 29 0 45 32 36 61 -17z m174 32 c10 -11 16 -20 13 -20 -3 0 -13 9
-23 20 -10 11 -16 20 -13 20 3 0 13 -9 23 -20z m392 14 c-3 -3 -12 -4 -19 -1
-8 3 -5 6 6 6 11 1 17 -2 13 -5z m61 -3 c-2 -18 4 -22 16 -12 13 11 14 5 10
-36 -7 -74 -14 -107 -25 -118 -14 -14 -149 -16 -149 -2 0 8 -4 7 -12 -1 -8 -8
-46 -12 -105 -12 -78 0 -93 3 -93 16 0 8 4 13 9 9 5 -3 12 -1 16 5 4 6 17 4
36 -6 32 -16 69 -11 69 11 0 13 18 11 88 -11 18 -5 24 -2 29 15 3 11 9 18 14
15 5 -3 9 -1 9 5 0 6 9 15 20 21 27 15 25 7 -9 -32 l-29 -34 26 1 c15 0 31 6
36 14 7 11 10 11 17 0 5 -9 8 -1 7 24 -1 26 6 48 22 70 l24 32 -29 -19 -30
-19 18 20 c12 14 15 23 8 28 -6 3 -11 1 -11 -5 0 -6 -4 -9 -9 -6 -14 9 -20
-31 -7 -45 6 -8 1 -5 -11 5 -22 19 -22 19 -3 46 16 23 50 38 48 21z m-3360
-25 c16 -18 16 -18 -13 -11 -16 3 -40 7 -52 7 -16 0 -19 3 -11 12 16 17 56 12
76 -8z m2952 3 c0 -14 -17 -10 -23 5 -4 10 -1 13 9 9 7 -3 14 -9 14 -14z m556
5 c18 -14 17 -15 -13 -11 -18 2 -33 0 -33 -5 0 -4 15 -8 34 -8 19 0 36 -3 39
-7 2 -5 2 -2 0 5 -1 8 3 12 9 10 14 -5 41 -75 35 -92 -3 -10 -32 16 -55 50
-11 17 -11 17 -2 -3 5 -12 10 -26 10 -32 0 -12 -32 -2 -42 13 -5 8 -8 7 -8 -1
0 -6 -9 -9 -20 -6 -21 6 -24 21 -14 72 7 35 28 40 60 15z m49 -2 c-3 -3 -11 0
-18 7 -9 10 -8 11 6 5 10 -3 15 -9 12 -12z m2415 -27 c0 -5 -5 -3 -10 5 -5 8
-10 20 -10 25 0 6 5 3 10 -5 5 -8 10 -19 10 -25z m-4200 15 c0 -5 -7 -10 -16
-10 -8 0 -12 5 -9 10 3 6 10 10 16 10 5 0 9 -4 9 -10z m1515 0 c-3 -5 -10 -10
-16 -10 -5 0 -9 5 -9 10 0 6 7 10 16 10 8 0 12 -4 9 -10z m-835 -22 c11 2 9
-2 -4 -13 -11 -8 -20 -14 -20 -12 -1 1 -10 13 -21 26 l-20 24 25 -14 c14 -7
32 -12 40 -11z m123 -28 c-8 -32 -20 -40 -64 -40 -24 0 -39 5 -43 15 -7 20 2
42 20 49 19 7 18 -3 -3 -26 -9 -10 -11 -18 -5 -18 6 0 14 5 17 11 5 6 12 4 21
-8 13 -16 13 -15 4 10 -12 35 -12 40 -1 33 5 -3 12 1 15 9 5 13 9 13 25 3 15
-9 19 -19 14 -38z m4061 39 c10 -10 13 -69 4 -75 -6 -4 -26 -10 -45 -14 -29
-7 -33 -6 -29 8 3 10 1 24 -5 32 -8 12 -9 10 -4 -7 4 -15 -1 -26 -16 -37 -31
-21 -33 -16 -14 32 16 38 19 41 48 36 24 -3 27 -2 12 4 -19 8 -19 9 0 19 18
10 40 11 49 2z m-3664 -3 c0 -2 -7 -7 -16 -10 -8 -3 -12 -2 -9 4 6 10 25 14
25 6z m1098 -8 c-3 -7 -16 -16 -29 -19 -45 -11 -69 -21 -69 -29 0 -5 -11 -7
-25 -5 -20 2 -25 -2 -22 -14 2 -9 8 -15 13 -14 5 1 11 -10 12 -24 2 -26 -4
-27 -50 -8 -10 4 -17 1 -20 -9 -6 -28 -26 -2 -29 38 -3 25 0 41 9 43 6 3 12
-2 12 -11 0 -22 13 -20 28 5 7 12 16 18 19 15 4 -3 17 1 31 10 17 11 27 13 31
5 5 -8 13 -5 26 9 20 22 69 28 63 8z m1952 -3 c7 -8 21 -15 31 -15 10 0 21 -5
25 -11 5 -8 -6 -9 -37 -4 -49 8 -65 18 -55 34 10 15 21 14 36 -4z m-2390 -31
c0 -26 -26 -14 -28 12 -2 22 0 25 13 14 8 -7 15 -19 15 -26z m2614 -9 c13 -10
25 -11 44 -4 25 10 26 10 8 -10 -16 -18 -21 -18 -58 -5 -22 8 -52 14 -67 14
-20 0 -23 2 -11 10 22 14 62 12 84 -5z m-2991 -17 c-18 -20 -40 -23 -63 -8
-21 14 3 28 46 27 32 -1 33 -2 17 -19z m2077 13 c0 -12 -20 -25 -27 -18 -7 7
6 27 18 27 5 0 9 -4 9 -9z m-3866 -10 c4 -5 0 -11 -6 -14 -19 -6 -49 4 -42 14
7 12 41 12 48 0z m1410 -10 c17 -19 16 -19 -82 -19 -67 0 -106 4 -118 13 -15
11 -6 12 62 11 65 -2 106 3 120 13 0 1 9 -8 18 -18z m46 -2 c0 -6 -4 -7 -10
-4 -5 3 -10 11 -10 16 0 6 5 7 10 4 6 -3 10 -11 10 -16z m3879 -30 c-12 -23
-21 -25 -13 -4 4 8 1 15 -4 15 -6 0 -10 9 -9 20 1 18 3 18 19 3 13 -12 15 -20
7 -34z m-3480 15 c-15 -18 -22 -13 -13 10 3 9 10 13 16 10 5 -3 4 -12 -3 -20z
m493 -12 c16 -2 54 -62 39 -62 -9 0 -54 31 -63 44 -5 7 -8 7 -8 -1 0 -15 -27
-6 -33 11 -5 12 3 13 65 8z m-3724 -11 c11 -7 11 -9 -1 -14 -16 -6 -27 0 -27
15 0 10 11 10 28 -1z m1526 -22 c7 6 15 8 19 5 3 -3 25 -8 48 -10 54 -7 60
-11 23 -19 -16 -4 -43 -13 -61 -21 -37 -17 -46 -18 -38 -4 9 14 -8 13 -23 -2
-9 -9 -12 -8 -12 5 0 20 -13 22 -42 6 -11 -6 -22 -8 -25 -6 -8 9 17 48 27 42
5 -3 14 3 20 14 10 21 10 21 31 0 15 -15 24 -17 33 -10z m1974 6 c-3 -3 -9 2
-12 12 -6 14 -5 15 5 6 7 -7 10 -15 7 -18z m-1883 5 c3 -5 1 -10 -4 -10 -6 0
-11 5 -11 10 0 6 2 10 4 10 3 0 8 -4 11 -10z m1773 -13 c8 -6 12 -6 12 2 0 6
7 11 16 11 9 0 12 -5 8 -12 -4 -7 2 -5 13 5 25 22 29 21 36 -3 5 -20 2 -21
-61 -18 -54 2 -67 6 -70 20 -3 14 1 16 15 11 10 -3 24 -10 31 -16z m2709 -3
c3 -8 12 -13 20 -10 8 3 18 -4 24 -18 6 -12 23 -27 37 -33 25 -8 22 -10 -29
-17 -57 -7 -141 8 -216 39 -33 14 -48 43 -17 31 9 -4 23 -1 30 5 11 9 18 8 29
-1 8 -7 22 -9 31 -6 9 4 22 1 30 -5 10 -8 16 -5 26 10 15 25 26 27 35 5z m326
1 c-3 -9 -8 -14 -10 -11 -3 3 -2 9 2 15 9 16 15 13 8 -4z m-3682 -12 c6 -6 -1
-8 -21 -5 -17 2 -32 8 -35 12 -7 11 44 5 56 -7z m81 -7 c13 -19 9 -26 -15 -26
-16 0 -28 9 -35 25 -11 24 -11 25 16 19 15 -4 30 -12 34 -18z m3651 18 c12
-12 -5 -32 -23 -27 -11 3 -16 11 -13 19 5 14 25 19 36 8z m87 -6 c0 -11 -20
-20 -51 -23 -32 -3 -31 -3 -24 18 6 14 75 19 75 5z m-3934 -23 c30 -14 54 -29
54 -35 0 -29 -112 11 -118 43 -4 22 -1 22 64 -8z m1030 5 c5 0 10 -8 12 -20 3
-16 -2 -20 -26 -20 -29 0 -30 1 -19 30 6 16 14 25 18 19 3 -6 10 -10 15 -9z
m-72 -5 c3 -9 -1 -18 -10 -22 -19 -7 -26 0 -18 21 8 20 20 21 28 1z m1046 -24
c0 -3 -16 -6 -35 -6 l-34 0 22 22 c20 19 23 19 35 5 6 -9 12 -18 12 -21z
m-4752 4 c-3 -3 -13 -2 -22 1 -14 5 -15 9 -4 15 13 8 36 -6 26 -16z m112 21
c0 -11 -19 -15 -25 -6 -3 5 1 10 9 10 9 0 16 -2 16 -4z m-210 -31 c0 -14 12
-19 33 -16 6 1 9 -8 6 -26 -1 -5 -5 -7 -9 -6 -5 2 -12 -7 -15 -19 -6 -16 -9
-18 -16 -7 -7 11 -9 11 -9 1 0 -8 -5 -10 -12 -6 -8 5 -9 2 -5 -10 4 -9 3 -15
-2 -12 -5 3 -11 -1 -15 -9 -3 -8 -12 -12 -20 -9 -12 5 -9 12 14 33 21 19 27
30 20 37 -7 7 -8 19 -1 37 11 29 31 37 31 12z m180 11 c0 -2 -7 -6 -15 -10 -8
-3 -15 -1 -15 4 0 6 7 10 15 10 8 0 15 -2 15 -4z m-229 -37 c-9 -22 -10 -22
-10 -3 -1 11 2 24 6 27 12 12 14 0 4 -24z m7006 5 c-7 -7 -37 7 -37 17 0 6 9
5 21 -1 11 -7 19 -14 16 -16z m48 -5 c3 -10 8 -28 11 -39 9 -33 -12 -23 -30
14 -9 19 -16 39 -16 45 0 17 29 1 35 -20z m-3354 4 c13 -15 12 -15 -11 -3 -34
17 -36 20 -18 20 9 0 22 -7 29 -17z m51 -5 c17 -29 23 -88 9 -88 -13 0 -25 28
-34 78 -7 37 4 42 25 10z m-748 -3 c-7 -17 -20 -20 -28 -6 -4 5 0 12 6 14 23
9 28 7 22 -8z m630 -15 c16 -18 26 -37 22 -46 -9 -23 -66 23 -66 53 0 31 9 29
44 -7z m3076 -11 c-6 -19 -15 -41 -20 -49 -9 -13 -11 -13 -19 -1 -6 10 -5 24
5 43 8 15 11 28 7 29 -5 0 1 4 12 8 26 11 26 11 15 -30z m45 24 c-19 -13 -31
-11 -21 5 3 5 13 9 22 9 15 0 15 -2 -1 -14z m355 -52 c0 -9 6 -23 13 -30 10
-11 9 -12 -7 -4 -10 6 -27 32 -37 59 l-18 49 24 -28 c14 -15 25 -36 25 -46z
m-3590 38 c0 -5 -7 -9 -15 -9 -8 0 -15 7 -15 15 0 9 6 12 15 9 8 -4 15 -10 15
-15z m3315 -10 c-3 -8 -19 -23 -35 -33 -39 -22 -40 -3 -3 36 26 28 49 26 38
-3z m95 17 c0 -8 -7 -16 -15 -20 -8 -3 -15 -1 -15 4 0 6 5 10 11 10 5 0 7 5 4
10 -3 6 -1 10 4 10 6 0 11 -6 11 -14z m-3560 -2 c0 -3 -5 -14 -10 -25 -16 -28
-32 -23 -18 6 10 22 28 35 28 19z m3762 -11 c21 -19 23 -33 5 -33 -8 0 -19 11
-25 25 -13 29 -6 32 20 8z m-3852 -12 c0 -12 -20 -25 -27 -18 -7 7 6 27 18 27
5 0 9 -4 9 -9z m3360 -3 c0 -22 -17 -41 -30 -33 -8 5 -7 12 6 26 20 22 24 23
24 7z m-3320 -6 c0 -10 -21 -32 -31 -32 -4 0 -5 9 -2 20 5 19 33 29 33 12z
m-444 -14 c4 4 5 0 2 -8 -3 -8 -12 -14 -21 -12 -8 1 -18 -2 -22 -8 -11 -18
-25 -10 -23 14 2 21 5 22 29 16 15 -5 31 -5 35 -2z m-448 -10 c9 -9 12 -9 12
0 0 7 10 12 22 12 21 0 21 0 2 -15 -32 -24 -93 -17 -67 8 9 10 17 9 31 -5z
m4322 -15 c0 -19 -3 -24 -10 -17 -6 6 -8 18 -4 27 9 24 14 21 14 -10z m-3053
-15 c-16 -10 -21 -2 -13 19 6 15 9 15 16 3 6 -9 5 -17 -3 -22z m2741 17 c12 2
27 7 34 11 6 4 4 -3 -5 -16 -14 -20 -14 -24 -1 -37 13 -14 17 -13 35 3 25 23
49 27 49 7 0 -10 6 -12 23 -8 12 4 24 8 27 9 6 1 10 -9 10 -23 0 -16 -64 -49
-96 -49 -23 0 -43 11 -83 48 -30 28 -50 53 -46 60 5 8 11 8 19 1 7 -6 22 -9
34 -6z m62 -4 c-11 -21 -30 -37 -30 -25 0 8 30 44 37 44 2 0 -1 -9 -7 -19z
m-3984 -9 c-3 -5 8 -6 25 -4 19 3 37 -2 48 -12 11 -10 30 -15 47 -13 49 7 70
-9 66 -49 -2 -19 -7 -34 -11 -35 -44 -8 -132 -4 -160 6 -32 12 -33 14 -11 14
15 1 31 -4 38 -11 15 -15 16 -1 1 40 -8 23 -19 32 -42 38 -43 9 -52 15 -36 25
18 11 42 12 35 1z m506 -29 c26 9 33 7 34 -14 1 -14 -2 -17 -9 -10 -6 6 -25
11 -41 11 -37 0 -61 14 -52 29 5 7 15 6 31 -5 14 -9 31 -14 37 -11z m4037 -10
c8 -29 10 -31 7 -9 l-4 30 19 -25 c34 -44 14 -60 -31 -24 -26 21 -51 25 -73
13 -12 -7 -26 -12 -32 -13 -5 0 -11 -8 -13 -19 -3 -12 0 -16 8 -11 7 4 33 8
57 8 35 0 48 -5 61 -24 29 -42 25 -57 -21 -80 -23 -12 -59 -23 -80 -24 -42 -3
-43 0 -50 92 -2 33 0 51 7 50 6 -1 10 4 8 12 -7 36 9 52 51 50 23 -1 48 -7 55
-12 9 -7 11 -6 6 7 -3 9 -2 16 4 16 5 0 15 -17 21 -37z m-880 8 c20 -20 20
-20 26 0 8 25 25 25 25 -2 0 -11 5 -17 10 -14 6 3 10 -1 10 -9 0 -14 3 -14 21
-4 17 11 22 10 34 -6 7 -10 18 -15 24 -12 10 6 25 -11 26 -29 1 -5 6 -9 12 -8
7 2 26 -15 43 -37 37 -46 31 -54 -9 -12 -20 22 -45 33 -104 46 -77 17 -126 46
-148 87 -13 25 5 25 30 0z m-6135 -22 c-6 -10 -65 -39 -79 -39 -3 0 -5 6 -5
13 0 7 14 14 33 15 17 2 34 7 35 12 2 6 8 10 13 10 6 0 7 -5 3 -11z m3444 -1
c-2 -5 -8 -9 -13 -9 -5 0 -11 4 -13 9 -1 5 4 9 13 9 9 0 14 -4 13 -9z m112 2
c13 -9 12 -12 -4 -25 -28 -21 -34 -19 -28 10 5 27 10 30 32 15z m488 -19 c2
-14 -6 -31 -23 -47 -24 -23 -28 -23 -55 -9 -16 8 -39 15 -51 15 -18 0 -19 3
-9 15 11 13 16 13 47 0 41 -17 53 -13 53 19 0 42 32 48 38 7z m2760 5 c-2 -20
-5 -22 -20 -12 -24 15 -23 36 2 36 15 0 19 -6 18 -24z m-7145 -5 c3 -14 -2
-21 -20 -25 -13 -4 -21 -11 -18 -16 4 -6 -1 -13 -10 -16 -19 -7 -34 4 -20 14
6 4 16 19 22 35 14 31 38 36 46 8z m3117 10 c0 -4 28 -16 63 -25 34 -10 87
-30 117 -46 52 -27 53 -29 20 -25 -19 3 -70 6 -113 9 -43 2 -84 10 -93 16 -15
13 -17 80 -2 80 4 0 8 -4 8 -9z m290 -6 c-7 -8 -17 -15 -22 -15 -11 0 14 29
26 30 5 0 3 -7 -4 -15z m-3480 -25 c-6 -11 -15 -20 -21 -20 -6 0 -6 7 1 20 6
11 15 20 21 20 6 0 6 -7 -1 -20z m4693 -10 c-31 -28 -43 -52 -25 -49 27 5 52
-2 46 -13 -4 -6 -8 -30 -8 -52 -1 -27 -5 -40 -14 -38 -16 3 -16 -25 1 -31 8
-4 8 -8 2 -14 -5 -4 -10 -17 -10 -27 0 -25 -25 -34 -26 -9 0 13 -3 10 -10 -8
-7 -18 -16 -26 -27 -23 -10 2 -25 -7 -37 -23 -13 -20 -14 -24 -3 -15 10 8 18
9 22 3 4 -6 -4 -17 -17 -26 -34 -22 -252 -18 -252 5 0 10 8 14 22 13 17 -2 21
1 16 15 -11 32 -25 42 -59 42 -46 0 -52 18 -9 26 19 3 47 15 60 26 21 16 28
18 40 8 12 -10 18 -10 30 0 8 7 13 16 10 20 -3 4 2 13 10 20 14 11 19 7 16
-12 0 -4 7 -12 17 -17 15 -8 22 -4 35 18 9 16 26 31 37 34 26 7 26 -9 0 -23
-11 -6 -20 -21 -20 -33 l0 -22 19 24 c20 26 35 16 25 -16 -5 -15 -4 -15 5 -3
6 8 11 24 11 35 0 11 7 29 15 39 17 23 19 14 5 -33 -6 -21 -6 -40 0 -50 5 -9
10 -13 11 -8 4 17 7 49 8 85 1 27 4 33 11 22 5 -8 7 -26 4 -40 l-4 -25 10 24
c6 14 8 38 4 54 -4 20 -3 27 5 23 6 -4 11 -17 11 -28 0 -29 11 -16 14 16 3 25
-11 33 -46 27 -10 -1 -10 40 0 56 8 12 48 31 67 32 6 0 -5 -13 -22 -29z
m-4270 -8 c-18 -5 -27 3 -18 17 4 7 10 7 20 -2 11 -10 11 -13 -2 -15z m42 19
c3 -5 2 -12 -3 -15 -5 -3 -9 1 -9 9 0 17 3 19 12 6z m2382 3 c-3 -3 -12 -4
-19 -1 -8 3 -5 6 6 6 11 1 17 -2 13 -5z m2863 -12 c21 -14 25 -25 26 -70 0
-29 6 -58 12 -64 9 -9 12 -5 12 20 0 38 15 43 24 8 4 -18 11 -23 26 -19 14 4
23 -2 31 -21 14 -29 24 -33 33 -11 8 22 26 19 26 -4 0 -25 18 -37 33 -22 14
14 27 14 27 1 0 -5 -6 -10 -14 -10 -7 0 -19 -7 -26 -16 -11 -12 -33 -15 -109
-13 -53 1 -113 4 -133 7 l-37 4 4 47 c2 25 4 58 4 74 1 22 7 29 31 34 30 6 38
17 20 28 -14 9 -32 45 -23 45 4 0 19 -8 33 -18z m-1860 -18 c0 -3 -6 -2 -12 1
-7 4 -5 0 5 -8 13 -11 17 -26 15 -54 l-3 -38 -52 0 c-51 0 -54 1 -85 44 -17
24 -26 41 -20 37 7 -4 12 -1 12 9 0 16 32 17 57 2 16 -10 43 2 43 19 0 12 4
12 20 4 11 -6 20 -13 20 -16z m1400 16 c0 -5 -5 -10 -11 -10 -5 0 -7 5 -4 10
3 6 8 10 11 10 2 0 4 -4 4 -10z m-3210 -10 c0 -5 -7 -10 -16 -10 -8 0 -12 5
-9 10 3 6 10 10 16 10 5 0 9 -4 9 -10z m1993 -5 c-3 -9 -8 -14 -10 -11 -3 3
-2 9 2 15 9 16 15 13 8 -4z m1170 2 c4 3 7 2 7 -4 0 -15 -11 -22 -26 -16 -8 3
-14 12 -14 20 0 12 3 13 13 4 8 -6 17 -8 20 -4z m312 -59 c-4 -40 -8 -79 -8
-85 0 -16 2 -17 -45 8 -26 14 -38 27 -35 36 4 11 10 10 25 -7 25 -27 28 -23
33 33 3 39 22 87 34 87 2 0 0 -33 -4 -72z m1625 62 c0 -5 -9 -14 -20 -20 -11
-6 -20 -8 -20 -4 0 3 -7 1 -15 -6 -13 -10 -15 -9 -15 9 0 18 4 20 25 15 15 -4
25 -2 25 5 0 6 5 11 10 11 6 0 10 -4 10 -10z m-5547 -21 c-6 -20 -29 -36 -38
-27 -5 4 32 48 39 48 2 0 2 -9 -1 -21z m1841 6 c-4 -8 -7 -15 -9 -15 -2 0 -5
7 -9 15 -3 9 0 15 9 15 9 0 12 -6 9 -15z m2526 -1 c0 -8 -4 -12 -10 -9 -5 3
-10 10 -10 16 0 5 5 9 10 9 6 0 10 -7 10 -16z m75 -1 c11 -10 19 -12 23 -6 6
8 72 11 91 4 2 0 -8 -10 -22 -21 -30 -24 -60 -26 -78 -4 -9 11 -24 14 -47 12
l-35 -4 23 18 c27 22 25 22 45 1z m-3818 -49 c-29 -25 -47 -31 -47 -15 0 17
30 40 45 35 8 -4 15 -1 15 7 0 7 3 9 8 5 4 -4 -6 -19 -21 -32z m2809 18 c-8
-8 -19 -11 -26 -7 -14 9 1 22 26 22 13 0 13 -2 0 -15z m360 -4 c4 -5 -4 -8
-17 -6 -12 1 -24 8 -26 15 -5 14 34 6 43 -9z m1658 -45 c-26 -34 -58 -41 -48
-10 4 12 16 34 28 48 20 25 22 25 30 7 7 -14 4 -26 -10 -45z m-490 35 c12 4
36 -18 36 -34 0 -19 -29 -6 -65 29 -27 27 -28 28 -5 16 14 -7 29 -12 34 -11z
m672 -11 c1 -12 -5 -32 -12 -44 -12 -19 -23 -23 -67 -23 -29 0 -58 -3 -63 -7
-6 -5 10 11 35 35 25 23 56 45 69 48 12 4 22 11 22 17 0 19 14 -3 16 -26z
m-4486 19 c0 -9 -30 -14 -35 -6 -4 6 3 10 14 10 12 0 21 -2 21 -4z m317 -16
c-1 -15 -14 -24 -53 -35 -76 -22 -84 -19 -33 13 73 46 88 50 86 22z m643 -13
c0 -5 -4 -5 -10 -2 -5 3 -10 14 -10 23 0 15 2 15 10 2 5 -8 10 -19 10 -23z
m237 26 c-4 -3 14 -19 41 -34 26 -15 61 -42 77 -60 17 -17 23 -28 15 -23 -8 4
-39 9 -69 11 -64 3 -90 22 -84 61 6 39 11 52 19 52 4 0 4 -3 1 -7z m229 -68
c5 -20 4 -26 -5 -21 -6 4 -11 2 -11 -5 0 -16 -38 28 -46 53 -3 10 0 25 6 33
11 13 15 11 31 -8 10 -13 21 -36 25 -52z m-1252 53 c-9 -15 -39 -38 -73 -56
l-25 -13 20 22 c16 19 72 59 82 59 2 0 0 -6 -4 -12z m75 8 c-12 -12 -82 -46
-86 -43 -8 9 50 47 70 47 11 0 18 -2 16 -4z m255 -11 c85 -16 111 -31 113 -65
2 -28 23 -52 39 -46 7 3 16 1 20 -5 3 -6 12 -8 20 -5 8 3 21 3 30 -1 27 -10
-6 -23 -62 -23 -32 0 -56 -5 -63 -14 -8 -10 -21 -12 -44 -6 -18 3 -35 7 -39 8
-5 1 -15 2 -23 2 -8 0 -15 5 -15 10 0 6 8 10 17 10 15 0 14 2 -3 15 -10 8 -26
15 -35 15 -36 0 -50 23 -43 73 4 26 7 47 8 47 0 0 37 -7 80 -15z m-414 -15
c-33 -26 -50 -26 -20 0 13 11 28 20 34 20 6 0 0 -9 -14 -20z m1409 -25 c0 -5
-4 -3 -9 5 -5 8 -9 22 -9 30 0 16 17 -16 18 -35z m2391 25 c0 -13 -5 -18 -14
-14 -8 3 -12 12 -9 20 8 21 23 17 23 -6z m342 -23 c-5 -7 -13 -30 -17 -52 -6
-26 -10 -33 -13 -21 -3 15 -6 16 -13 5 -7 -11 -9 -10 -9 5 0 12 5 16 15 12 11
-4 15 2 15 25 0 17 5 40 12 52 11 20 13 20 16 4 2 -10 -1 -23 -6 -30z m-6684
21 c-2 -8 6 -13 19 -12 19 1 21 -2 12 -17 -5 -11 -15 -19 -21 -19 -7 0 -6 5 2
15 11 13 10 14 -3 10 -8 -4 -18 -16 -21 -28 -10 -36 -52 -81 -61 -67 -5 9 -4
11 3 6 7 -4 12 -2 12 3 0 6 -5 11 -10 11 -7 0 -7 6 -1 19 6 10 7 22 3 26 -4 5
-2 5 5 2 6 -4 9 -17 7 -30 -4 -20 -3 -20 6 3 6 13 18 32 26 41 8 9 14 20 13
25 -2 13 0 24 6 24 3 0 4 -6 3 -12z m3132 -34 c0 -22 -3 -23 -20 -14 -17 9
-40 40 -40 54 0 3 14 0 30 -5 22 -8 30 -17 30 -35z m782 -8 c-3 -5 -9 1 -14
13 -4 13 -5 28 -1 34 8 14 23 -33 15 -47z m-2388 7 c6 2 11 9 11 15 0 7 5 11
10 10 6 -2 9 -7 7 -12 -1 -4 9 -5 23 -2 22 6 27 2 37 -25 10 -28 12 -30 23
-16 18 25 35 21 35 -8 0 -22 3 -24 19 -15 33 17 32 11 -1 -20 -20 -20 -42 -30
-62 -31 -60 -1 -163 -8 -190 -13 -23 -4 -26 -2 -21 15 4 10 2 19 -4 19 -11 0
-5 53 9 78 5 11 10 11 23 -2 22 -22 27 -20 39 16 11 31 12 31 21 10 6 -13 15
-21 21 -19z m5110 19 c3 -5 -1 -9 -9 -9 -8 0 -12 4 -9 9 3 4 7 8 9 8 2 0 6 -4
9 -8z m156 -6 c0 -16 -24 -38 -33 -30 -7 7 14 44 25 44 5 0 8 -6 8 -14z
m-4037 -3 c-7 -2 -21 -2 -30 0 -10 3 -4 5 12 5 17 0 24 -2 18 -5z m-263 -13
c0 -5 -5 -10 -11 -10 -5 0 -7 5 -4 10 3 6 8 10 11 10 2 0 4 -4 4 -10z m135 0
c-4 -6 6 -7 27 -4 18 4 35 7 38 6 3 0 21 0 40 -1 59 -4 3 -19 -87 -25 -43 -3
-69 -3 -58 0 11 4 24 12 28 20 4 8 10 14 13 14 3 0 2 -4 -1 -10z m547 -2 c-9
-9 -15 -9 -24 0 -9 9 -7 12 12 12 19 0 21 -3 12 -12z m641 -12 c9 -13 13 -26
10 -30 -9 -8 -43 24 -43 41 0 20 16 15 33 -11z m2782 12 c4 -4 13 -4 21 -1 17
6 18 -1 3 -29 -11 -20 -26 -20 -83 2 -35 13 -23 36 18 35 19 0 37 -3 41 -7z
m-1689 -28 c8 0 14 -5 14 -11 0 -6 7 -8 16 -5 13 5 15 1 12 -19 -6 -31 5 -40
25 -20 21 20 23 19 21 -12 -1 -25 -6 -29 -67 -44 -55 -14 -67 -14 -71 -3 -3 8
-1 14 4 14 6 0 10 10 10 23 -1 19 -2 20 -11 5 -5 -10 -25 -20 -45 -24 -41 -8
-64 13 -56 53 4 24 5 24 19 3 8 -11 21 -20 29 -20 8 0 14 -5 14 -12 0 -9 3 -9
13 1 10 10 9 15 -5 25 -22 16 -23 36 -3 36 8 0 15 5 15 11 0 5 4 8 9 5 5 -3
15 2 22 11 13 15 14 15 17 0 2 -10 10 -17 18 -17z m1084 10 c0 -5 -5 -10 -11
-10 -5 0 -7 5 -4 10 3 6 8 10 11 10 2 0 4 -4 4 -10z m1100 -87 c0 -2 -20 7
-45 19 -34 18 -45 29 -45 48 0 23 3 22 45 -20 25 -24 45 -46 45 -47z m150 74
c15 3 31 0 34 -6 12 -19 -60 -13 -75 7 -11 14 -11 15 0 5 8 -7 26 -9 41 -6z
m-6789 -56 c-2 -49 -1 -52 16 -42 17 9 19 7 15 -19 l-4 -28 -45 13 c-25 8 -47
16 -49 18 -6 6 18 60 30 68 5 4 5 12 1 18 -5 9 -11 7 -20 -6 -7 -10 -11 -21
-9 -25 2 -3 -1 -18 -8 -33 -8 -18 -14 -22 -20 -13 -6 10 -8 10 -8 1 0 -7 -5
-13 -11 -13 -6 0 -8 12 -4 33 3 17 7 37 7 44 2 17 18 5 18 -13 0 -8 -5 -14
-12 -14 -6 0 -9 -3 -5 -6 3 -4 13 -4 21 -1 13 5 14 12 6 32 -7 18 -7 24 0 20
6 -4 17 -2 25 5 9 8 15 8 20 0 3 -6 11 -8 16 -4 5 3 6 10 3 16 -4 6 -1 9 7 6
9 -3 12 -20 10 -57z m1549 55 c0 -2 -7 -6 -15 -10 -8 -3 -15 -1 -15 4 0 6 7
10 15 10 8 0 15 -2 15 -4z m750 -21 c0 -24 -2 -25 -72 -24 l-73 1 52 17 c29 9
55 20 59 24 16 15 34 6 34 -18z m4195 -53 c3 -49 1 -72 -6 -72 -6 0 -9 7 -5
15 6 17 -9 21 -20 4 -4 -7 -10 -7 -16 -1 -7 7 -4 23 11 49 15 26 16 31 4 17
-10 -12 -23 -30 -28 -39 -17 -28 -55 -11 -55 24 0 16 6 33 13 39 12 10 89 40
94 37 2 -1 5 -34 8 -73z m120 68 c3 -5 11 -7 18 -5 11 5 57 -55 57 -72 0 -5
-5 0 -11 10 -5 9 -16 17 -23 17 -7 0 -25 14 -41 30 -16 17 -24 30 -17 30 6 0
13 -4 17 -10z m-4145 -44 c0 -11 -21 -14 -61 -7 -3 1 -4 12 -2 26 5 23 6 24
34 9 16 -8 29 -20 29 -28z m4225 18 c9 -15 12 -23 6 -20 -11 7 -35 46 -28 46
3 0 12 -12 22 -26z m-3603 -26 c-11 -11 -32 -3 -32 12 0 12 34 18 39 7 2 -5
-1 -13 -7 -19z m152 1 c-3 -5 2 -6 10 -3 10 4 17 -2 20 -18 14 -60 10 -78 -14
-78 -19 0 -28 8 -65 55 -15 18 -15 17 0 -12 20 -41 20 -40 -15 -35 -30 4 -30
6 -24 46 6 38 11 69 13 72 1 1 19 -3 41 -8 22 -6 37 -14 34 -19z m3123 -4 c-7
-14 -15 -25 -19 -25 -13 0 -9 48 5 53 21 7 26 -2 14 -28z m-6594 -5 c-3 -12
-8 -19 -11 -16 -5 6 5 36 12 36 2 0 2 -9 -1 -20z m3552 -27 c4 -14 2 -23 -4
-23 -13 0 -31 33 -31 56 0 16 2 16 14 4 8 -8 17 -25 21 -37z m3248 24 c-3 -5
-1 -7 4 -4 12 7 78 -17 87 -32 3 -5 -4 -7 -16 -4 -61 13 -86 25 -91 43 -3 13
-1 17 9 13 8 -3 11 -10 7 -16z m-5827 -13 c8 3 14 0 14 -7 0 -7 -11 -14 -24
-15 -20 -1 -22 2 -18 26 5 20 7 22 10 9 2 -11 9 -16 18 -13z m58 2 c-3 -9 -12
-16 -20 -16 -18 0 -18 5 2 25 19 19 27 15 18 -9z m2251 15 c3 -5 1 -12 -5 -16
-5 -3 -10 1 -10 9 0 18 6 21 15 7z m3275 -1 c0 -5 -5 -10 -11 -10 -5 0 -7 5
-4 10 3 6 8 10 11 10 2 0 4 -4 4 -10z m408 -36 c-4 -3 -12 5 -18 18 -12 22
-12 22 6 6 10 -10 15 -20 12 -24z m-6354 -16 c17 -12 28 -9 20 4 -5 8 -2 9 9
5 10 -4 17 -1 18 6 0 7 5 1 12 -13 l11 -25 4 33 c2 17 7 32 13 32 8 0 13 -15
10 -32 0 -5 5 -8 13 -8 8 0 16 -7 20 -15 4 -10 -1 -15 -15 -15 -11 0 -69 -11
-128 -24 -59 -14 -134 -28 -167 -31 -32 -4 -61 -8 -64 -9 -7 -1 -10 10 -10 33
0 24 36 37 56 20 13 -10 17 -10 25 2 7 11 10 9 16 -11 l7 -25 12 30 c12 27 13
28 14 7 0 -14 4 -21 11 -17 6 4 8 14 4 24 -5 12 -4 13 6 4 9 -9 17 -9 32 -1
15 7 22 7 28 -3 7 -12 9 -11 10 1 1 8 3 20 4 25 2 6 4 19 5 30 l2 20 5 -20 c3
-11 10 -23 17 -27z m2596 38 c0 -3 -4 -8 -10 -11 -5 -3 -10 -1 -10 4 0 6 5 11
10 11 6 0 10 -2 10 -4z m110 -6 c0 -5 -2 -10 -4 -10 -3 0 -8 5 -11 10 -3 6 -1
10 4 10 6 0 11 -4 11 -10z m260 -18 c0 -15 -2 -15 -10 -2 -13 20 -13 33 0 25
6 -3 10 -14 10 -23z m926 -18 c8 3 14 -1 14 -9 0 -15 -5 -17 -50 -17 -49 -1
-73 2 -66 9 11 11 48 14 41 3 -3 -5 -1 -10 4 -10 6 0 11 7 11 15 0 8 6 24 13
36 12 19 12 19 15 -6 2 -18 8 -25 18 -21z m-3610 9 c-10 -10 -19 5 -10 18 6
11 8 11 12 0 2 -7 1 -15 -2 -18z m-93 -14 c-23 -8 -27 -4 -19 17 5 14 9 14 22
3 14 -12 14 -14 -3 -20z m2827 -16 c0 -27 -28 -12 -32 17 -4 28 -4 29 14 13
10 -9 18 -22 18 -30z m3295 -42 c19 -15 19 -15 5 3 -14 18 -14 19 8 7 12 -6
28 -9 34 -5 7 4 8 3 4 -4 -4 -7 4 -24 17 -38 l25 -26 -6 28 c-5 27 -5 27 15 8
22 -20 47 -63 41 -69 -5 -5 -249 94 -265 107 -7 6 -13 24 -13 40 l0 29 58 -32
c31 -17 66 -39 77 -48z m244 46 l25 -32 -32 29 c-33 31 -37 36 -24 35 4 0 18
-14 31 -32z m-3909 13 c0 -5 -7 -10 -15 -10 -8 0 -15 5 -15 10 0 6 7 10 15 10
8 0 15 -4 15 -10z m891 -19 c-12 -12 -29 -21 -38 -20 -13 0 -14 2 -4 6 7 3 22
14 33 25 11 11 22 17 25 15 2 -3 -5 -15 -16 -26z m206 -17 c-3 -3 -12 -4 -19
-1 -8 3 -5 6 6 6 11 1 17 -2 13 -5z"/>
<path d="M4873 3914 c-3 -8 1 -23 10 -31 23 -23 52 0 36 28 -12 23 -37 25 -46
3z"/>
<path d="M4993 3883 c-18 -7 -16 -28 3 -43 12 -11 18 -10 31 3 13 13 14 19 3
31 -13 17 -17 18 -37 9z"/>
<path d="M5198 3755 c-22 -48 39 -80 73 -39 9 11 9 21 1 39 -16 34 -58 34 -74
0z"/>
<path d="M4660 3796 c0 -28 24 -41 40 -21 16 20 5 45 -20 45 -14 0 -20 -7 -20
-24z"/>
<path d="M4436 3674 c-8 -21 11 -45 29 -38 20 8 28 36 13 46 -20 12 -35 9 -42
-8z"/>
<path d="M4332 3661 c-20 -12 -10 -46 13 -46 14 0 20 7 20 24 0 27 -13 35 -33
22z"/>
<path d="M4084 3646 c-9 -24 2 -45 23 -42 24 4 25 49 0 54 -9 2 -20 -4 -23
-12z"/>
<path d="M4190 3646 c-17 -21 -5 -62 19 -69 27 -7 55 25 46 52 -3 12 -10 21
-15 21 -5 0 -15 2 -23 5 -7 3 -20 -1 -27 -9z"/>
<path d="M4334 3556 c-3 -8 -4 -23 -2 -33 5 -25 61 -25 66 0 7 37 -51 67 -64
33z"/>
<path d="M4053 3505 c-11 -8 -23 -23 -25 -33 -7 -25 17 -82 34 -83 7 0 21 -2
32 -4 10 -2 29 8 43 21 56 56 -19 144 -84 99z"/>
<path d="M4690 2905 c0 -8 2 -15 4 -15 2 0 6 7 10 15 3 8 1 15 -4 15 -6 0 -10
-7 -10 -15z"/>
<path d="M695 1670 c-3 -5 -2 -10 4 -10 5 0 13 5 16 10 3 6 2 10 -4 10 -5 0
-13 -4 -16 -10z"/>
<path d="M7375 1521 c-11 -22 -12 -32 -3 -37 7 -4 8 -3 4 4 -4 7 -3 12 2 12 5
0 12 11 14 25 7 33 2 32 -17 -4z"/>
<path d="M3540 1396 c0 -2 7 -7 16 -10 8 -3 12 -2 9 4 -6 10 -25 14 -25 6z"/>
<path d="M3570 1366 c0 -2 7 -9 15 -16 13 -11 14 -10 9 4 -5 14 -24 23 -24 12z"/>
<path d="M626 1115 c-7 -20 21 -32 37 -16 9 9 8 14 -3 21 -21 13 -27 12 -34
-5z m24 -5 c0 -5 -5 -10 -11 -10 -5 0 -7 5 -4 10 3 6 8 10 11 10 2 0 4 -4 4
-10z"/>
<path d="M3510 810 c-8 -5 -12 -12 -9 -15 4 -3 12 1 19 10 14 17 11 19 -10 5z"/>
<path d="M3420 807 c0 -11 55 -62 103 -94 26 -18 47 -29 47 -24 0 5 -17 20
-37 33 -21 12 -55 38 -75 56 -21 19 -38 32 -38 29z"/>
<path d="M3527 777 l-17 -32 20 24 c17 20 26 41 18 41 -2 0 -11 -15 -21 -33z"/>
<path d="M7600 721 c0 -6 4 -13 10 -16 6 -3 7 1 4 9 -7 18 -14 21 -14 7z"/>
<path d="M4381 4811 c-52 -46 -48 -127 10 -156 37 -20 64 -19 100 2 54 32 57
122 4 157 -33 22 -87 20 -114 -3z"/>
<path d="M4858 4713 c-22 -5 -33 -40 -18 -58 17 -20 56 -19 64 1 14 36 -10 65
-46 57z"/>
<path d="M4334 4615 c-8 -19 3 -35 26 -35 22 0 33 23 17 39 -15 15 -37 14 -43
-4z"/>
<path d="M4630 4615 c-16 -19 -5 -47 17 -43 22 4 29 43 9 51 -8 3 -20 -1 -26
-8z"/>
<path d="M4760 4595 c-16 -19 -6 -45 19 -45 25 0 34 26 15 45 -19 18 -19 18
-34 0z"/>
<path d="M4443 4574 c-3 -8 1 -22 9 -30 13 -14 17 -14 32 1 13 13 14 20 5 31
-15 19 -38 18 -46 -2z"/>
<path d="M4290 4525 c-6 -8 -9 -23 -5 -35 8 -25 51 -27 64 -2 20 38 -31 71
-59 37z"/>
<path d="M3452 4508 c-18 -18 -14 -46 7 -58 11 -5 22 -10 25 -10 8 0 36 31 36
40 0 13 -30 40 -44 40 -6 0 -17 -5 -24 -12z"/>
<path d="M3716 4502 c-12 -11 -6 -43 9 -48 19 -8 45 13 39 31 -6 14 -39 26
-48 17z"/>
<path d="M4431 4477 c-15 -15 -14 -54 2 -64 25 -15 46 -12 61 9 13 19 14 25 2
43 -15 22 -49 28 -65 12z"/>
<path d="M4666 4471 c-9 -10 -16 -24 -16 -32 0 -39 61 -54 80 -19 22 42 -33
85 -64 51z"/>
<path d="M3571 4442 c-12 -23 4 -52 29 -52 23 0 43 32 34 54 -8 22 -51 20 -63
-2z"/>
<path d="M4754 4435 c-8 -19 3 -35 26 -35 19 0 30 17 23 38 -6 17 -42 15 -49
-3z"/>
<path d="M3237 4423 c-11 -10 -8 -41 4 -49 16 -9 43 21 36 40 -7 16 -28 21
-40 9z"/>
<path d="M3373 4403 c-15 -5 -17 -39 -4 -47 17 -11 42 6 39 27 -3 22 -15 29
-35 20z"/>
<path d="M4874 4395 c-8 -19 3 -35 26 -35 19 0 30 17 23 38 -6 17 -42 15 -49
-3z"/>
<path d="M3820 4376 c-27 -33 18 -72 48 -42 13 13 14 20 6 34 -15 23 -38 26
-54 8z"/>
<path d="M3714 4355 c-8 -19 3 -35 26 -35 19 0 34 25 24 41 -8 14 -44 10 -50
-6z"/>
<path d="M3957 4359 c-23 -13 -47 -62 -47 -94 0 -41 50 -85 97 -85 43 1 66 15
87 54 40 77 -61 169 -137 125z"/>
<path d="M4300 4360 c-16 -3 -32 -19 -43 -42 -16 -34 -17 -39 -3 -66 26 -50
82 -57 123 -16 20 20 24 31 19 57 -11 54 -46 79 -96 67z"/>
<path d="M4173 4344 c-3 -8 1 -22 9 -30 13 -14 17 -14 32 1 13 13 14 20 5 31
-15 19 -38 18 -46 -2z"/>
<path d="M3536 4331 c-23 -26 -17 -63 14 -78 52 -26 96 47 48 81 -29 21 -41
20 -62 -3z"/>
<path d="M3694 4275 c-9 -23 4 -47 23 -43 22 4 30 38 11 49 -19 13 -28 11 -34
-6z"/>
<path d="M4426 4265 c-9 -9 -16 -20 -16 -25 0 -15 32 -41 48 -38 24 5 39 35
26 56 -15 23 -38 26 -58 7z"/>
<path d="M4690 4255 c-7 -8 -10 -22 -6 -30 7 -20 42 -19 50 1 8 22 8 22 -13
33 -14 8 -22 7 -31 -4z"/>
<path d="M4910 4255 c-15 -18 -6 -45 14 -45 22 0 38 34 24 48 -16 16 -23 15
-38 -3z"/>
<path d="M3365 4239 c-5 -13 -2 -24 6 -29 20 -13 40 1 37 24 -4 29 -35 33 -43
5z"/>
<path d="M3784 4222 c-35 -24 -15 -76 27 -70 16 2 25 10 27 26 6 38 -26 64
-54 44z"/>
<path d="M3493 4213 c-18 -7 -16 -40 3 -47 21 -8 34 1 34 24 0 19 -17 30 -37
23z"/>
<path d="M4544 4195 c-8 -32 6 -48 37 -43 19 2 24 9 24 33 0 25 -4 31 -27 33
-22 3 -29 -2 -34 -23z"/>
<path d="M4210 4174 c-11 -12 -10 -18 4 -32 16 -16 18 -16 31 2 11 14 12 23 4
33 -15 17 -24 16 -39 -3z"/>
<path d="M3565 4155 c-29 -29 -32 -54 -7 -82 23 -27 51 -32 83 -17 47 23 46
89 -1 114 -29 16 -49 12 -75 -15z"/>
<path d="M3900 4146 c0 -28 24 -41 40 -21 16 20 5 45 -20 45 -14 0 -20 -7 -20
-24z"/>
<path d="M4340 4154 c-11 -12 -10 -18 3 -32 16 -15 18 -15 34 0 13 14 14 20 3
32 -7 9 -16 16 -20 16 -4 0 -13 -7 -20 -16z"/>
<path d="M3324 4118 c-51 -24 -59 -105 -15 -149 42 -41 92 -40 132 2 76 81
-16 197 -117 147z"/>
<path d="M4017 4124 c-10 -10 -9 -42 2 -48 18 -11 42 6 39 28 -3 21 -28 33
-41 20z"/>
<path d="M3017 4094 c-13 -13 -7 -42 10 -48 21 -8 36 6 31 30 -3 19 -29 30
-41 18z"/>
<path d="M3862 4068 c-30 -30 3 -77 40 -57 30 16 16 69 -17 69 -6 0 -16 -5
-23 -12z"/>
<path d="M3688 4053 c-11 -21 -1 -38 22 -38 33 0 36 38 3 43 -11 2 -23 0 -25
-5z"/>
<path d="M3165 4040 c-12 -20 6 -50 30 -50 25 0 38 21 29 45 -7 17 -49 20 -59
5z"/>
<path d="M6418 4038 c-40 -32 -40 -84 0 -114 19 -15 61 -18 78 -6 16 10 34 48
34 71 0 46 -74 78 -112 49z"/>
<path d="M6130 3989 c-72 -28 -85 -130 -23 -179 66 -52 163 1 163 87 0 67 -76
116 -140 92z"/>
<path d="M3093 3983 c-19 -7 -16 -43 3 -50 23 -9 48 25 33 44 -12 14 -16 15
-36 6z"/>
<path d="M3610 3975 c-10 -12 -9 -20 4 -40 14 -21 20 -23 36 -15 27 15 32 27
20 50 -13 24 -42 26 -60 5z"/>
<path d="M1674 3951 c4 -6 0 -14 -8 -17 -9 -3 -16 -17 -16 -31 0 -24 1 -25 22
-11 12 8 24 21 27 29 4 12 2 12 -12 0 -19 -15 -24 -2 -6 16 8 8 7 13 -2 18 -8
5 -10 4 -5 -4z"/>
<path d="M3107 3880 c-7 -26 26 -46 42 -26 6 7 9 21 5 30 -9 23 -41 20 -47 -4z"/>
<path d="M6582 3888 c-7 -7 -12 -21 -12 -33 0 -12 5 -26 12 -33 7 -7 21 -12
33 -12 12 0 26 5 33 12 7 7 12 21 12 33 0 12 -5 26 -12 33 -7 7 -21 12 -33 12
-12 0 -26 -5 -33 -12z"/>
<path d="M1657 3873 c-3 -5 -2 -16 2 -25 5 -15 8 -13 18 7 9 20 8 25 -2 25 -8
0 -16 -3 -18 -7z"/>
<path d="M6336 3854 c-42 -42 -44 -81 -6 -122 22 -23 68 -29 99 -12 31 16 46
65 31 100 -7 17 -21 35 -31 40 -27 15 -76 12 -93 -6z"/>
<path d="M2652 3804 c-27 -19 -29 -64 -4 -87 26 -24 68 -21 86 5 21 30 20 54
-4 78 -24 24 -48 25 -78 4z"/>
<path d="M6702 3748 c-17 -17 -15 -53 3 -68 20 -17 62 -5 70 20 14 44 -41 80
-73 48z"/>
<path d="M2389 3696 c-19 -9 -24 -19 -24 -51 0 -33 4 -42 27 -53 51 -24 100
25 76 75 -16 33 -48 45 -79 29z"/>
<path d="M7044 3684 c-59 -29 -71 -98 -25 -145 58 -58 144 -29 157 53 5 29 1
40 -22 66 -36 37 -70 46 -110 26z"/>
<path d="M7378 3689 c-36 -21 -16 -79 27 -79 42 0 59 44 29 74 -18 18 -32 20
-56 5z"/>
<path d="M7321 3554 c-26 -19 -27 -46 -1 -69 29 -26 70 -7 70 33 0 38 -38 58
-69 36z"/>
<path d="M7526 3524 c-21 -20 -20 -47 2 -67 39 -35 94 29 57 67 -21 20 -39 20
-59 0z"/>
<path d="M2091 3514 c-22 -16 -21 -49 3 -72 30 -31 86 20 65 59 -12 23 -44 29
-68 13z"/>
<path d="M6970 3380 c-41 -41 -13 -110 45 -110 39 0 65 28 65 71 0 54 -70 79
-110 39z"/>
<path d="M7671 3364 c-26 -18 -27 -46 -3 -66 33 -30 75 -6 70 41 -4 31 -39 44
-67 25z"/>
<path d="M7365 3329 c-11 -16 -1 -19 13 -3 7 8 8 14 3 14 -5 0 -13 -5 -16 -11z"/>
<path d="M7502 3244 c-32 -22 -43 -56 -32 -94 12 -41 36 -59 81 -60 53 0 85
39 80 101 -3 51 -85 84 -129 53z"/>
<path d="M7784 3098 c-58 -31 -72 -107 -29 -151 32 -31 64 -38 103 -21 64 26
75 116 20 161 -19 16 -72 22 -94 11z"/>
<path d="M7965 2787 c-21 -30 -19 -44 9 -62 46 -30 97 27 56 63 -28 23 -48 23
-65 -1z"/>
<path d="M7767 2742 c-35 -38 -8 -92 45 -92 45 0 68 51 42 89 -19 26 -65 28
-87 3z"/>
<path d="M7958 2628 c-50 -41 -4 -107 51 -74 19 12 19 48 0 67 -22 22 -30 23
-51 7z"/>
<path d="M595 1590 c-3 -5 -1 -10 4 -10 6 0 11 5 11 10 0 6 -2 10 -4 10 -3 0
-8 -4 -11 -10z"/>
<path d="M7506 1344 c-19 -18 -20 -30 -4 -40 8 -5 9 -2 5 10 -4 9 -3 14 2 11
5 -3 8 -31 6 -63 -1 -31 0 -51 2 -44 3 6 8 10 12 7 5 -2 7 16 6 41 -1 24 2 47
6 50 5 3 7 10 3 15 -3 5 -10 6 -16 3 -7 -5 -9 -1 -5 9 8 21 3 21 -17 1z"/>
<path d="M7630 1316 c0 -8 4 -17 9 -20 5 -4 7 3 4 14 -6 23 -13 26 -13 6z"/>
<path d="M317 791 c-24 -42 -21 -52 4 -13 12 18 20 35 17 37 -2 2 -12 -9 -21
-24z"/>
<path d="M160 790 c-13 -8 -12 -10 3 -10 9 0 17 -7 17 -15 0 -8 5 -15 10 -15
7 0 7 6 1 19 -6 10 -7 21 -4 25 10 10 -10 7 -27 -4z"/>
<path d="M224 778 l-19 -23 25 20 c14 11 27 21 29 22 2 2 0 3 -6 3 -5 0 -18
-10 -29 -22z"/>
<path d="M418 778 c-9 -7 -18 -26 -21 -41 -4 -27 -4 -27 14 -11 20 18 25 29 9
19 -16 -10 -12 7 7 27 19 21 14 24 -9 6z"/>
<path d="M285 729 c-4 -6 -5 -12 -2 -15 2 -3 7 2 10 11 7 17 1 20 -8 4z"/>
<path d="M669 633 c-13 -16 -12 -17 4 -4 9 7 17 15 17 17 0 8 -8 3 -21 -13z"/>
<path d="M340 620 c-6 -11 -8 -20 -6 -20 3 0 10 9 16 20 6 11 8 20 6 20 -3 0
-10 -9 -16 -20z"/>
<path d="M369 613 c-13 -16 -12 -17 4 -4 16 13 21 21 13 21 -2 0 -10 -8 -17
-17z"/>
<path d="M831 594 c0 -11 3 -14 6 -6 3 7 2 16 -1 19 -3 4 -6 -2 -5 -13z"/>
</g>
</svg>
